<svg width="110" height="66" viewBox="0 0 110 66" fill="none" xmlns="http://www.w3.org/2000/svg">
<g id="New Leaf">
<path d="M19.5992 14.3455C19.672 14.4545 19.7448 14.5455 19.8176 14.6182C19.9268 14.6909 20.0178 14.8 20.0906 14.9455C20.1634 15.0545 20.2362 15.1455 20.309 15.2182C20.4181 15.2545 20.4727 15.3455 20.4727 15.4909L21.0187 15.9818V16.2545L21.2916 16.4182C21.2916 16.4182 21.3644 16.4545 21.51 16.5273V16.7455C21.5464 16.7818 21.5646 16.8182 21.5646 16.8545C21.6374 16.9273 21.692 17 21.7284 17.0727C21.8012 17.1091 21.8922 17.1273 22.0014 17.1273C22.1106 17.1273 22.1651 17.2 22.1651 17.3455C22.2743 17.6727 22.4199 17.8909 22.6019 18C22.6747 18 22.7111 18.0182 22.7111 18.0545C22.7475 18.0545 22.7839 18.0545 22.8203 18.0545V18.3273C22.8567 18.4 22.8931 18.4545 22.9295 18.4909C22.9659 18.4909 22.9659 18.5273 22.9295 18.6L23.3116 18.7636C23.348 18.6545 23.3662 18.5091 23.3662 18.3273V17.4545C23.3662 17.4182 23.4026 17.3636 23.4754 17.2909C23.4754 17.2909 23.439 17.2545 23.3662 17.1818V16.2545L23.4754 16.1455V15.8727C23.4026 15.8 23.3662 15.7636 23.3662 15.7636V12.7636C23.3662 12.7273 23.4026 12.6727 23.4754 12.6C23.4754 12.6 23.439 12.5636 23.3662 12.4909V9.49091C23.3662 9.49091 23.4026 9.45455 23.4754 9.38182L23.3662 9.21818V7.25454L23.2024 7.14545V6.76364L23.3662 6.6V5.72727L23.2024 5.56364C23.2752 5.56364 23.3116 5.52727 23.3116 5.45455C23.3116 5.45455 23.3298 5.41818 23.3662 5.34545V4.69091C23.2934 4.61818 23.257 4.56364 23.257 4.52727C23.257 4.49091 23.2934 4.43636 23.3662 4.36364C23.3662 4.29091 23.3298 4.23636 23.257 4.2C23.1842 4.12727 23.1296 4.05455 23.0932 3.98182L23.3662 3.76364L23.257 3.49091C23.257 3.49091 23.2934 3.45455 23.3662 3.38182V3.10909L23.2024 2.89091L23.3662 2.67273V2.45455L23.2024 2.29091C23.2752 2.29091 23.3116 2.25454 23.3116 2.18182V1.14545C23.3116 1.14545 23.2752 1.10909 23.2024 1.03636L23.3662 0.872726V0.218182C23.4026 0.218182 23.4208 0.2 23.4208 0.163634H26.2597L26.4235 0.272727L26.5327 0.163634H27.1878L27.297 0.272727C27.3334 0.272727 27.388 0.236363 27.4608 0.163634H27.8429C27.9157 0.236363 27.9703 0.272727 28.0067 0.272727L28.0613 0.218182C28.0977 0.218182 28.1341 0.2 28.1705 0.163634H28.771L28.9348 0.327272L29.2078 0.163634H29.5353L29.6445 0.272727C29.6809 0.272727 29.7355 0.236363 29.8083 0.163634L29.9175 0.272727H30.3542L30.4088 0.218182C30.518 0.145454 30.609 0.127271 30.6818 0.163634C30.791 0.2 30.882 0.2 30.9548 0.163634L31.064 0.272727V11.9455L30.9002 12.1091C30.9002 12.1091 30.9366 12.1455 31.0094 12.2182V12.7091L31.1732 12.8727L31.0094 13.0364L31.1732 13.2545C31.1004 13.3273 31.064 13.3818 31.064 13.4182V17.1818C31.064 17.1818 31.1004 17.2182 31.1732 17.2909L31.064 17.4C31.0276 17.4727 31.0094 17.5636 31.0094 17.6727C31.0458 17.7818 31.064 17.8727 31.064 17.9455C31.064 17.9818 31.1004 18.0364 31.1732 18.1091C31.1732 18.1091 31.1368 18.1455 31.064 18.2182V20.0727C31.064 20.1091 31.0822 20.1455 31.1186 20.1818C31.1913 20.1818 31.2095 20.2182 31.1732 20.2909L31.064 20.4545V21.8727C31.1004 21.9091 31.1186 21.9455 31.1186 21.9818C31.1186 21.9818 31.155 22 31.2277 22.0364L31.0094 22.3091L31.1186 22.5273C31.1186 22.5273 31.1004 22.5636 31.064 22.6364V23.4545C31.1004 23.4545 31.1368 23.4727 31.1732 23.5091C31.2095 23.5091 31.2459 23.5091 31.2823 23.5091C31.2823 23.5818 31.2277 23.6182 31.1186 23.6182C31.0822 23.6545 31.064 23.6909 31.064 23.7273V27.4364C31.064 27.4727 31.1004 27.5273 31.1732 27.6C31.1732 27.6 31.1368 27.6364 31.064 27.7091V31.0909L31.0094 31.1455H30.4634C30.427 31.1455 30.3724 31.1091 30.2996 31.0364H30.1905C30.1177 31.1091 30.0813 31.1636 30.0813 31.2H26.1505L26.0413 31.0364L25.8775 31.1455H24.7857C24.7129 31.2182 24.6765 31.2545 24.6765 31.2545C24.6401 31.2545 24.6037 31.2727 24.5673 31.3091C24.4945 31.3091 24.4581 31.2909 24.4581 31.2545C24.4217 31.2545 24.3853 31.2364 24.3489 31.2H23.3116L22.7111 30.5455C22.6383 30.4364 22.5837 30.3636 22.5473 30.3273C22.5109 30.2909 22.4017 30.1818 22.2197 30C22.1833 29.9636 22.1651 29.9273 22.1651 29.8909C22.1651 29.8182 22.1469 29.7636 22.1106 29.7273C22.0378 29.6545 21.9832 29.5818 21.9468 29.5091C21.9104 29.4364 21.8558 29.3636 21.783 29.2909L21.0187 28.5273V28.3636C20.9459 28.3273 20.8549 28.2909 20.7457 28.2545C20.6729 28.2182 20.5819 28.1818 20.4727 28.1455L20.6365 27.9273C20.6001 27.9273 20.5819 27.8909 20.5819 27.8182C20.5091 27.7455 20.4181 27.6545 20.309 27.5455C20.2362 27.4364 20.1452 27.3455 20.036 27.2727C19.9632 27.2 19.9086 27.1273 19.8722 27.0545C19.8358 26.9818 19.7812 26.9091 19.7084 26.8364C19.6356 26.7636 19.5628 26.7091 19.49 26.6727C19.4536 26.6 19.4354 26.5091 19.4354 26.4C19.3627 26.3636 19.3081 26.3273 19.2717 26.2909C19.2717 26.2545 19.2353 26.2364 19.1625 26.2364C19.1261 26.2364 19.0533 26.1818 18.9441 26.0727V25.8L18.289 25.2H18.1798L18.016 24.9818V24.7091L17.6338 24.3818C17.6338 24.2727 17.6157 24.2 17.5793 24.1636C17.5065 24.1636 17.4519 24.1455 17.4155 24.1091C17.3427 24.0727 17.3063 24.0364 17.3063 24C17.3063 23.9273 17.2699 23.8545 17.1971 23.7818C17.0151 23.6727 16.9423 23.5636 16.9787 23.4545L16.5966 23.1273C16.5966 23.1273 16.5602 23.1091 16.4874 23.0727C16.4146 22.9636 16.3418 22.8545 16.269 22.7455C16.2326 22.6 16.178 22.4727 16.1052 22.3636C15.9596 22.2909 15.8686 22.2182 15.8322 22.1455C15.7959 22.0364 15.7049 21.9091 15.5593 21.7636C15.4865 21.6909 15.4501 21.6364 15.4501 21.6C15.4501 21.5273 15.4137 21.4545 15.3409 21.3818C15.3045 21.3818 15.2499 21.3455 15.1771 21.2727C15.1043 21.2364 14.9951 21.0909 14.8496 20.8364L14.249 20.1818V20.0182L13.9761 19.8C13.9761 19.7636 13.9579 19.7273 13.9215 19.6909C13.9215 19.6545 13.9215 19.6182 13.9215 19.5818H13.6485C13.5757 19.5455 13.5393 19.5091 13.5393 19.4727C13.5757 19.4 13.5757 19.3273 13.5393 19.2545C13.5393 19.2182 13.5211 19.2 13.4847 19.2C13.4483 19.1636 13.4119 19.1091 13.3755 19.0364C13.2663 18.9636 13.1753 18.8727 13.1025 18.7636C13.0298 18.7273 12.9934 18.6909 12.9934 18.6545C13.0298 18.6182 13.0116 18.5636 12.9388 18.4909C12.8296 18.3818 12.775 18.3091 12.775 18.2727H12.5566V18C12.3382 17.8545 12.1745 17.6909 12.0653 17.5091C12.0289 17.4364 12.0107 17.3818 12.0107 17.3455C12.0107 17.3091 11.9925 17.2727 11.9561 17.2364H11.7923C11.7195 17.0182 11.6467 16.8545 11.5739 16.7455L11.2464 16.4182C11.2464 16.3818 11.2282 16.3636 11.1918 16.3636C11.1918 16.3273 11.1918 16.2909 11.1918 16.2545C11.1554 16.2182 11.1008 16.2 11.028 16.2C10.8824 16.1273 10.7732 16.0182 10.7004 15.8727C10.664 15.6909 10.573 15.5636 10.4274 15.4909V15.3273L9.77232 14.6727V14.5636L9.28097 14.0727C9.31737 13.9273 9.26278 13.8364 9.11719 13.8C9.008 13.7636 8.97161 13.6727 9.008 13.5273L8.51666 13.0364C8.48026 13 8.46206 12.9455 8.46206 12.8727L8.1345 12.7091C8.0981 12.7818 8.07991 12.8364 8.07991 12.8727C8.07991 12.9091 8.04351 12.9636 7.97072 13.0364V13.4182C7.97072 13.4182 8.00711 13.4545 8.07991 13.5273L7.97072 13.6364V14.3455C7.97072 14.3455 8.00711 14.3818 8.07991 14.4545V15.0545L7.97072 15.2727C7.97072 15.3455 7.98892 15.3818 8.02531 15.3818C8.06171 15.4182 8.07991 15.4545 8.07991 15.4909C8.1163 15.5273 8.1709 15.5636 8.24369 15.6L8.07991 15.7091V16.1455C8.00711 16.2182 7.97072 16.2545 7.97072 16.2545L8.07991 16.4182V16.9091L8.18909 17.0182C8.18909 17.0909 8.1709 17.1273 8.1345 17.1273C8.0981 17.1273 8.07991 17.1636 8.07991 17.2364C8.1163 17.3091 8.0981 17.3455 8.02531 17.3455C7.98892 17.3455 7.97072 17.3818 7.97072 17.4545C7.97072 17.4545 8.00711 17.4909 8.07991 17.5636V18.4909L7.97072 18.6C8.00711 18.6727 8.04351 18.7273 8.07991 18.7636C8.1163 18.7636 8.1709 18.8 8.24369 18.8727C8.24369 18.9455 8.18909 19.0364 8.07991 19.1455V21.0545L8.24369 21.2182L8.07991 21.3273V22.7455L7.97072 22.9091C7.97072 22.9818 7.97072 23.0545 7.97072 23.1273C7.97072 23.1636 8.00711 23.2182 8.07991 23.2909V24.2182L7.97072 24.3273V24.6C8.04351 24.6727 8.07991 24.7091 8.07991 24.7091V25.3636C8.04351 25.4 8.02531 25.4364 8.02531 25.4727C8.02531 25.4727 7.98892 25.4909 7.91612 25.5273L8.07991 25.8V26.5636L7.97072 26.6727V27.1091C7.97072 27.1091 8.00711 27.1455 8.07991 27.2182V27.6L7.97072 27.7091L8.07991 27.8727V31.1455C8.00711 31.1818 7.91612 31.2 7.80694 31.2C7.69775 31.1636 7.60676 31.1636 7.53397 31.2H6.98803C6.91524 31.1273 6.87884 31.0727 6.87884 31.0364L6.71506 31.2H5.84155L5.67777 31.0364L5.56858 31.1455C5.56858 31.1455 5.53219 31.1636 5.4594 31.2H3.71239L3.54861 31.0364L3.27564 31.2H2.29295C2.22015 31.2727 2.18376 31.3091 2.18376 31.3091H0.873503C0.800712 31.3818 0.746118 31.4182 0.709721 31.4182C0.673326 31.4182 0.582336 31.3818 0.436752 31.3091H0.218376C0.18198 31.3091 0.163782 31.2909 0.163782 31.2545C0.163782 31.2182 0.200178 31.1636 0.27297 31.0909V28.6364L0.382158 28.5273V28.2545L0.27297 28.0909C0.236574 28.0182 0.236574 27.9818 0.27297 27.9818C0.345762 27.9455 0.400356 27.8909 0.436752 27.8182L0.27297 27.5455V27.2182C0.200178 27.1455 0.163782 27.1091 0.163782 27.1091L0.382158 26.6727V25.8L0.27297 25.5818C0.27297 25.5818 0.309366 25.5091 0.382158 25.3636V24.4909C0.382158 24.4545 0.345762 24.4 0.27297 24.3273C0.27297 24.3273 0.309366 24.2909 0.382158 24.2182V23.9455C0.382158 23.9455 0.345762 23.9091 0.27297 23.8364V21.4909C0.345762 21.4182 0.382158 21.3636 0.382158 21.3273V20.9455C0.382158 20.9091 0.36396 20.8909 0.327564 20.8909C0.327564 20.8909 0.327564 20.8727 0.327564 20.8364C0.291168 20.8364 0.27297 20.8 0.27297 20.7273V19.9091C0.345762 19.8364 0.382158 19.7818 0.382158 19.7455C0.382158 19.7455 0.345762 19.7091 0.27297 19.6364V18.4364C0.345762 18.4364 0.382158 18.4 0.382158 18.3273L0.27297 18.2182V17.4545C0.345762 17.3818 0.382158 17.3273 0.382158 17.2909V17.1818C0.382158 17.1455 0.36396 17.1273 0.327564 17.1273C0.327564 17.1273 0.327564 17.1091 0.327564 17.0727C0.291168 17.0727 0.27297 17.0545 0.27297 17.0182V15.1091C0.345762 15.0364 0.382158 14.9818 0.382158 14.9455C0.345762 14.8727 0.309366 14.8364 0.27297 14.8364C0.236574 14.8 0.200178 14.7636 0.163782 14.7273C0.163782 14.6909 0.200178 14.6364 0.27297 14.5636V14.2909C0.309366 14.2545 0.327564 14.2364 0.327564 14.2364C0.36396 14.2364 0.400356 14.2 0.436752 14.1273L0.327564 13.9636L0.27297 13.9091V12.4909C0.345762 12.4182 0.382158 12.3818 0.382158 12.3818C0.309366 12.3091 0.27297 12.2364 0.27297 12.1636V12L0.382158 11.8364L0.218376 11.5636L0 11.4545L0.27297 11.1818V10.6364L0.382158 10.5273C0.382158 10.5273 0.345762 10.4909 0.27297 10.4182V10.0364C0.345762 9.96364 0.382158 9.90909 0.382158 9.87273C0.418554 9.8 0.418554 9.76364 0.382158 9.76364C0.345762 9.72727 0.309366 9.67273 0.27297 9.6V6.6C0.309366 6.6 0.327564 6.6 0.327564 6.6C0.327564 6.56364 0.345762 6.54545 0.382158 6.54545C0.45495 6.36364 0.418554 6.21818 0.27297 6.10909L0.436752 5.89091L0.27297 5.67273V4.25454C0.345762 4.25454 0.382158 4.21818 0.382158 4.14545V2.34545C0.382158 2.30909 0.345762 2.25454 0.27297 2.18182C0.27297 2.10909 0.27297 2.05455 0.27297 2.01818C0.309366 1.98182 0.345762 1.92727 0.382158 1.85454V0.218182C0.45495 0.145454 0.527742 0.127271 0.600534 0.163634C0.709722 0.2 0.800712 0.2 0.873503 0.163634C0.873503 0.2 0.909899 0.254545 0.982691 0.327272C1.05548 0.327272 1.14647 0.272726 1.25566 0.163634H1.91079L2.01998 0.272727H2.94807C2.94807 0.272727 2.98447 0.236363 3.05726 0.163634C3.13005 0.236363 3.18465 0.272727 3.22104 0.272727H3.87617L3.98536 0.163634H4.25833C4.33112 0.236363 4.36752 0.272727 4.36752 0.272727H4.64049C4.67688 0.272727 4.73148 0.236363 4.80427 0.163634H5.13183L5.29561 0.272727H5.67777L5.78696 0.163634C5.85975 0.236363 5.91435 0.272727 5.95074 0.272727H6.22371L6.3329 0.163634L6.44209 0.272727C6.62407 0.345453 6.80605 0.345453 6.98803 0.272727C7.06082 0.272727 7.09721 0.236363 7.09721 0.163634C7.17001 0.127271 7.2246 0.145454 7.261 0.218182C7.29739 0.254545 7.35199 0.290909 7.42478 0.327272C7.49757 0.254545 7.58856 0.2 7.69775 0.163634H7.80694C7.84333 0.163634 7.86153 0.181817 7.86153 0.218182C7.86153 0.218182 7.87973 0.218182 7.91612 0.218182C8.06171 0.290909 8.1527 0.327272 8.18909 0.327272C8.18909 0.363635 8.18909 0.399999 8.18909 0.436365C8.22549 0.436365 8.24369 0.454546 8.24369 0.490909L8.89882 1.14545C8.93521 1.21818 8.95341 1.29091 8.95341 1.36364C8.9898 1.4 9.0444 1.45454 9.11719 1.52727C9.18998 1.6 9.24458 1.65454 9.28097 1.69091C9.35377 1.69091 9.39016 1.72727 9.39016 1.8C9.39016 1.94545 9.46295 2.05455 9.60854 2.12727C9.68133 2.2 9.71772 2.27273 9.71772 2.34545C9.75412 2.38182 9.80871 2.43636 9.88151 2.50909H9.99069C10.0635 2.61818 10.1545 2.72727 10.2637 2.83636C10.3729 2.90909 10.4638 2.98182 10.5366 3.05455C10.6094 3.16364 10.6458 3.27273 10.6458 3.38182C10.6822 3.45455 10.7368 3.52727 10.8096 3.6C10.8824 3.67273 10.9188 3.74546 10.9188 3.81818C10.9552 3.89091 11.0098 3.96364 11.0826 4.03636C11.1554 4.07273 11.21 4.09091 11.2464 4.09091C11.3191 4.09091 11.3737 4.12727 11.4101 4.2C11.4465 4.27273 11.4829 4.32727 11.5193 4.36364C11.5557 4.36364 11.5921 4.38182 11.6285 4.41818C11.6285 4.49091 11.6467 4.54545 11.6831 4.58182C11.7559 4.61818 11.7923 4.67273 11.7923 4.74545C11.8651 4.89091 12.0107 5.07273 12.229 5.29091C12.3018 5.36364 12.3746 5.43636 12.4474 5.50909C12.5202 5.58182 12.593 5.65454 12.6658 5.72727V5.83636L13.048 6.10909V6.38182L13.2663 6.54545H13.3755C13.4483 6.72727 13.5029 6.83636 13.5393 6.87273C13.5757 6.87273 13.6667 6.90909 13.8123 6.98182V7.30909L14.0852 7.52727C14.158 7.6 14.1944 7.65455 14.1944 7.69091C14.1944 7.72727 14.2126 7.78182 14.249 7.85455H14.4128C14.4856 7.92727 14.5402 8 14.5766 8.07273C14.6494 8.10909 14.704 8.16364 14.7404 8.23636L14.9042 8.61818C14.9769 8.61818 15.0497 8.65455 15.1225 8.72727C15.1589 8.72727 15.2499 8.76364 15.3955 8.83636L15.2863 8.94545L15.4501 9.27273C15.4865 9.27273 15.5047 9.29091 15.5047 9.32727C15.5411 9.32727 15.5957 9.32727 15.6685 9.32727V9.49091L16.1598 9.98182C16.1598 10.0182 16.1598 10.0545 16.1598 10.0909C16.1962 10.0909 16.2144 10.1273 16.2144 10.2H16.542C16.6148 10.2727 16.633 10.3455 16.5966 10.4182C16.5602 10.4909 16.5602 10.5636 16.5966 10.6364C16.633 10.7091 16.6876 10.7636 16.7603 10.8C16.8695 10.8 16.9423 10.8909 16.9787 11.0727L17.4701 11.5636C17.4337 11.7091 17.4701 11.8 17.5793 11.8364C17.7248 11.8727 17.7794 11.9636 17.743 12.1091C17.8158 12.2182 17.9432 12.2909 18.1252 12.3273C18.1252 12.4 18.1434 12.4545 18.1798 12.4909L18.7257 13.0909C18.7985 13.2 18.8713 13.3636 18.9441 13.5818H19.1079C19.1807 13.6545 19.1989 13.7273 19.1625 13.8C19.1625 13.8364 19.1989 13.8727 19.2717 13.9091C19.4172 13.9818 19.4718 14.0727 19.4354 14.1818L19.5992 14.3455Z" fill="#E4E4E4"/>
<path d="M51.6941 24.6545C51.7669 24.6182 51.8215 24.5818 51.8579 24.5455C51.8943 24.4727 51.9489 24.4182 52.0216 24.3818C52.058 24.3818 52.1126 24.4182 52.1854 24.4909H53.7687V24.5455C53.7687 24.5455 53.7687 24.5818 53.7687 24.6545V26.8364C53.7687 26.8727 53.7868 26.8909 53.8232 26.8909C53.8232 26.9273 53.8596 26.9818 53.9324 27.0545L53.7687 27.3818L53.9324 27.5455C53.8596 27.6182 53.8232 27.6727 53.8232 27.7091V30.6545C53.8232 30.6909 53.8596 30.7455 53.9324 30.8182V31.0909C53.896 31.0909 53.8778 31.1091 53.8778 31.1455C53.8778 31.1455 53.8596 31.1455 53.8232 31.1455H52.5676C52.5312 31.1455 52.4766 31.1818 52.4038 31.2545H52.1854L52.0216 31.1455H51.6395C51.5667 31.2182 51.5303 31.2545 51.5303 31.2545L51.3665 31.0909L51.1481 31.2545C51.0753 31.1818 51.0026 31.1455 50.9298 31.1455C50.857 31.1455 50.766 31.2 50.6568 31.3091L50.4384 31.1455L50.3838 31.2C50.3474 31.2364 50.311 31.2545 50.2746 31.2545H49.6741C49.6741 31.2545 49.6377 31.2182 49.5649 31.1455L49.3465 31.2545C49.3465 31.2545 49.2737 31.2182 49.1282 31.1455H48.8006C48.7278 31.1818 48.6732 31.2182 48.6368 31.2545C48.6368 31.2909 48.6004 31.2909 48.5276 31.2545C48.4912 31.2182 48.4548 31.2 48.4184 31.2C48.4184 31.2 48.4002 31.1636 48.3638 31.0909C48.1455 31.2364 47.9635 31.3273 47.8179 31.3636C47.7815 31.3273 47.7451 31.2909 47.7087 31.2545C47.7087 31.2182 47.6723 31.1818 47.5995 31.1455C47.5631 31.1455 47.4721 31.1818 47.3266 31.2545H46.6714C46.6714 31.2545 46.635 31.2182 46.5622 31.1455L46.3985 31.2545C46.3985 31.2182 46.3803 31.2 46.3439 31.2C46.3439 31.2 46.3439 31.1818 46.3439 31.1455C46.1619 31.0727 46.0163 31.0909 45.9071 31.2C45.7979 31.2727 45.6705 31.2909 45.525 31.2545C45.4886 31.2545 45.434 31.2182 45.3612 31.1455H44.8698C44.797 31.2182 44.7606 31.2545 44.7606 31.2545L44.5969 31.1455C44.5605 31.1818 44.5241 31.2 44.4877 31.2C44.4877 31.2 44.4695 31.2364 44.4331 31.3091C44.3603 31.2364 44.2693 31.1818 44.1601 31.1455H43.5596L43.4504 31.2545L43.2866 31.1455H42.6315C42.6315 31.1455 42.5951 31.1818 42.5223 31.2545C42.4495 31.2909 42.3585 31.2545 42.2493 31.1455L42.0855 31.2545C42.0127 31.2545 41.94 31.2182 41.8672 31.1455C41.7944 31.0727 41.7034 31.0727 41.5942 31.1455L41.485 31.2545L41.3212 31.1455H40.8299L40.6661 31.2545H40.2839L40.1202 31.0909L39.9018 31.2545L39.738 31.0909L39.5196 31.2545L39.3013 31.0909L39.1375 31.2545C39.1375 31.2545 39.1011 31.2182 39.0283 31.1455H37.8272L37.6634 31.2545C37.6634 31.2545 37.627 31.2182 37.5542 31.1455H36.8991C36.8627 31.1455 36.8263 31.1818 36.7899 31.2545C36.7899 31.2909 36.7535 31.2909 36.6807 31.2545L36.517 31.1455H34.77V30.4909L34.6062 30.2182L34.77 30V29.2364C34.7336 29.2364 34.679 29.2 34.6062 29.1273V28.7455L34.77 28.5818V27.4364C34.8064 27.4 34.8245 27.3818 34.8245 27.3818C34.8245 27.3455 34.8609 27.3091 34.9337 27.2727L34.77 27V26.4L34.6608 26.2364V25.9636L34.8791 25.8545L34.497 25.4727L34.77 25.2V23.8909C34.6972 23.8909 34.6608 23.8545 34.6608 23.7818L34.8791 23.3455C34.8791 23.3455 34.8427 23.3091 34.77 23.2364V22.6364C34.6972 22.5273 34.6426 22.4727 34.6062 22.4727L34.77 22.0909C34.77 21.9455 34.8064 21.8545 34.8791 21.8182C34.8064 21.7455 34.77 21.7091 34.77 21.7091V21.3273L34.6062 21.1636C34.679 21.0909 34.7154 21.0545 34.7154 21.0545C34.7154 21.0545 34.679 20.9818 34.6062 20.8364L34.7154 20.6182C34.7154 20.6182 34.6972 20.5818 34.6608 20.5091C34.6608 20.5091 34.6972 20.4727 34.77 20.4V19.8545L34.6062 19.6909L34.77 19.4182V18.9273C34.6972 18.9273 34.6608 18.8909 34.6608 18.8182C34.6608 18.8182 34.6972 18.7818 34.77 18.7091V18.3273C34.6972 18.2545 34.6608 18.2 34.6608 18.1636C34.6608 18.1273 34.6972 18.0727 34.77 18L34.6062 17.7818V16.7455L34.77 16.5818C34.8064 16.5091 34.7882 16.4545 34.7154 16.4182C34.679 16.3818 34.6426 16.3273 34.6062 16.2545C34.6426 16.2545 34.6972 16.1818 34.77 16.0364V14.8909C34.7336 14.8909 34.679 14.8545 34.6062 14.7818V14.5091L34.77 14.3455L34.6062 14.1273V13.8545L34.77 13.7455L34.6608 13.6364V13.0909C34.6608 13.0909 34.6972 13.0182 34.77 12.8727C34.7336 12.8364 34.7154 12.8182 34.7154 12.8182C34.7154 12.7818 34.679 12.7455 34.6062 12.7091V12.4364C34.679 12.3636 34.7336 12.3273 34.77 12.3273C34.6972 12.2545 34.6608 12.2182 34.6608 12.2182C34.6244 12.1455 34.6062 12.0909 34.6062 12.0545C34.6426 12.0182 34.6426 11.9636 34.6062 11.8909C34.6426 11.8909 34.6972 11.8545 34.77 11.7818V11.4L34.6608 11.2909V10.5818L34.77 10.4727C34.7336 10.4727 34.679 10.4364 34.6062 10.3636L34.77 10.2C34.8064 10.1273 34.7882 10.0909 34.7154 10.0909C34.679 10.0545 34.6608 10.0182 34.6608 9.98182V9.54545C34.6608 9.54545 34.679 9.50909 34.7154 9.43636C34.7154 9.4 34.679 9.34545 34.6062 9.27273L34.77 9.05455V8.67273C34.7336 8.6 34.6972 8.56364 34.6608 8.56364C34.6244 8.52727 34.6062 8.47273 34.6062 8.4C34.679 8.32727 34.7336 8.29091 34.77 8.29091C34.8064 8.21818 34.7882 8.16364 34.7154 8.12727C34.679 8.09091 34.6608 8.05455 34.6608 8.01818C34.6608 7.98182 34.6972 7.92727 34.77 7.85455L34.6608 7.58182V7.25454C34.6608 7.21818 34.6972 7.16364 34.77 7.09091L34.6062 6.98182L34.77 6.81818C34.8064 6.74545 34.7882 6.70909 34.7154 6.70909C34.679 6.67273 34.6426 6.61818 34.6062 6.54545C34.6426 6.50909 34.6608 6.47273 34.6608 6.43636C34.6608 6.4 34.6972 6.34545 34.77 6.27273V5.56364C34.6972 5.49091 34.6608 5.43636 34.6608 5.4C34.6608 5.32727 34.6426 5.25455 34.6062 5.18182L34.77 5.01818V2.94545L34.6062 2.78182L34.77 2.67273V1.09091L34.8791 0.981819L34.77 0.872726L34.9337 0.490909C34.8609 0.454546 34.8245 0.436365 34.8245 0.436365C34.8245 0.399999 34.8064 0.363635 34.77 0.327272L34.9337 0.163634H36.6807L36.7899 0.272727L36.9537 0.10909L37.1721 0.272727C37.2449 0.30909 37.2813 0.30909 37.2813 0.272727C37.3177 0.199999 37.3723 0.145453 37.4451 0.10909H38.7553L38.9191 0.272727L39.1375 0.163634H40.2839C40.3203 0.163634 40.3749 0.199999 40.4477 0.272727C40.5205 0.30909 40.5933 0.254544 40.6661 0.10909H40.9391L41.1029 0.272727C41.1029 0.236364 41.1029 0.218182 41.1029 0.218182C41.1392 0.218182 41.1574 0.2 41.1574 0.163634C41.1938 0.163634 41.212 0.163634 41.212 0.163634C41.2484 0.127271 41.2848 0.10909 41.3212 0.10909H42.1401C42.1765 0.218181 42.3039 0.272727 42.5223 0.272727C42.5223 0.199999 42.5587 0.163634 42.6315 0.163634H43.1774C43.2138 0.163634 43.2684 0.199999 43.3412 0.272727L43.6142 0.10909L43.8871 0.272727L44.0509 0.163634L44.1055 0.10909H45.6341C45.7069 0.181818 45.7433 0.236364 45.7433 0.272727L45.9071 0.10909H47.0536L47.2174 0.272727H47.4903C47.4903 0.236364 47.5267 0.181818 47.5995 0.10909C47.7087 0.10909 47.7997 0.163635 47.8725 0.272727C47.8725 0.199999 47.9089 0.163634 47.9817 0.163634C47.9817 0.163634 47.9999 0.145453 48.0363 0.10909H48.5276L48.6368 0.272727C48.7096 0.199999 48.746 0.163634 48.746 0.163634H49.2919C49.3647 0.163634 49.4011 0.199999 49.4011 0.272727L49.5649 0.10909H51.3665L51.5303 0.272727C51.5303 0.199999 51.5667 0.163634 51.6395 0.163634H52.9497C52.9497 0.163634 52.9861 0.199999 53.0589 0.272727L53.2227 0.10909H53.6049L53.7687 0.327272V0.654544C53.8414 0.727272 53.8778 0.781818 53.8778 0.818181C53.8778 0.890907 53.8414 0.963635 53.7687 1.03636L53.9324 1.25455C53.896 1.25455 53.8778 1.27273 53.8778 1.30909C53.8778 1.30909 53.8596 1.30909 53.8232 1.30909V1.41818C53.7868 1.6 53.7687 1.76363 53.7687 1.90909C53.7687 2.05454 53.7687 2.21818 53.7687 2.4L53.9324 2.50909L53.8232 2.67273V3.70909C53.8232 3.70909 53.8596 3.74546 53.9324 3.81818C53.8596 3.89091 53.8232 3.94545 53.8232 3.98182V5.50909C53.8232 5.54545 53.8596 5.6 53.9324 5.67273L53.7687 5.78182C53.7687 5.85455 53.8232 5.94545 53.9324 6.05455V6.38182C53.8596 6.45455 53.805 6.54545 53.7687 6.65454C53.7323 6.72727 53.6777 6.8 53.6049 6.87273C53.6049 6.87273 53.5685 6.83636 53.4957 6.76364H53.0589C52.9861 6.83636 52.9497 6.87273 52.9497 6.87273C52.8769 6.87273 52.8406 6.83636 52.8406 6.76364H52.2946L52.0216 6.43636C51.9852 6.54545 51.9671 6.63636 51.9671 6.70909L51.9125 6.76364H50.3292L50.22 6.87273C50.1473 6.87273 50.1109 6.83636 50.1109 6.76364H48.9098C48.8006 6.87273 48.6732 6.92727 48.5276 6.92727L48.3638 6.76364H46.8352L46.6714 6.92727C46.5986 6.92727 46.544 6.90909 46.5077 6.87273C46.5077 6.83636 46.4713 6.8 46.3985 6.76364L46.1255 6.87273L46.0709 6.81818C45.9981 6.81818 45.9253 6.85455 45.8525 6.92727L45.6341 6.76364H45.4158C45.343 6.83636 45.2884 6.87273 45.252 6.87273C45.1792 6.87273 45.1428 6.83636 45.1428 6.76364H44.8698C44.797 6.83636 44.7425 6.87273 44.7061 6.87273L44.5969 6.76364H44.2147C44.1419 6.83636 44.1055 6.87273 44.1055 6.87273C44.0691 6.87273 44.0145 6.83636 43.9417 6.76364H42.5223L42.4677 6.81818V8.61818C42.3949 8.69091 42.3585 8.74545 42.3585 8.78182C42.3585 8.81818 42.3949 8.87273 42.4677 8.94545V12.2727C42.4677 12.3091 42.4859 12.3455 42.5223 12.3818H43.0136L43.232 12.2182L43.4504 12.3818H45.7979C45.7979 12.3091 45.8343 12.2727 45.9071 12.2727C45.9435 12.2727 45.9981 12.3091 46.0709 12.3818H46.2893C46.2893 12.3818 46.3257 12.4182 46.3985 12.4909C46.4349 12.4909 46.4895 12.4545 46.5622 12.3818H46.9444L47.0536 12.2727C47.09 12.2727 47.1446 12.3091 47.2174 12.3818H48.1455C48.1455 12.3091 48.1819 12.2727 48.2547 12.2727C48.2547 12.2727 48.2911 12.2909 48.3638 12.3273C48.4366 12.4 48.5094 12.4182 48.5822 12.3818C48.655 12.3455 48.7278 12.3455 48.8006 12.3818C48.8006 12.3818 48.837 12.4182 48.9098 12.4909L49.019 12.3818H49.6741L49.8379 12.2727L49.9471 12.3818H50.22C50.22 12.3818 50.2564 12.4182 50.3292 12.4909L50.493 12.3818H51.9125L52.0762 12.2182C52.0762 12.2909 52.0762 12.3636 52.0762 12.4364C52.1126 12.4727 52.1308 12.5273 52.1308 12.6C52.24 12.5636 52.2946 12.5273 52.2946 12.4909C52.331 12.4182 52.3674 12.3455 52.4038 12.2727H52.8406L52.9497 12.3818H53.6049L53.7141 12.2727L53.9324 12.4364C53.9688 12.5091 53.9324 12.6 53.8232 12.7091V13.6364L53.9324 13.7455C53.9324 13.7455 53.896 13.7818 53.8232 13.8545V14.6182C53.8232 14.6182 53.8596 14.6909 53.9324 14.8364L53.7687 15.1091L53.9324 15.3273V16.2C53.8596 16.2727 53.8232 16.3273 53.8232 16.3636L53.9324 16.4727L53.8232 16.5818V16.9636C53.8232 16.9636 53.8596 17.0364 53.9324 17.1818C53.9324 17.1818 53.896 17.2545 53.8232 17.4V17.6727L53.9324 17.7818V18.0545C53.8596 18.1273 53.8232 18.1636 53.8232 18.1636V18.4364C53.8232 18.5091 53.8596 18.5455 53.9324 18.5455C53.9324 18.6545 53.9142 18.7273 53.8778 18.7636C53.8414 18.7636 53.7868 18.8 53.7141 18.8727H53.2227L53.0589 19.0364C52.9861 19.0364 52.9133 19 52.8406 18.9273C52.7678 18.8545 52.6586 18.8545 52.513 18.9273C52.513 19 52.4402 19.0727 52.2946 19.1455C52.2218 19.1455 52.1308 19.2 52.0216 19.3091L51.8033 19.0364C51.6577 19 51.5121 19 51.3665 19.0364C51.2573 19.0364 51.1299 19.0182 50.9844 18.9818C50.9116 18.9818 50.8752 18.9455 50.8752 18.8727C50.8024 18.8364 50.7478 18.8545 50.7114 18.9273C50.675 18.9636 50.6204 19 50.5476 19.0364L50.3292 18.8727H50.0563C50.0563 18.9091 50.0199 18.9636 49.9471 19.0364H49.6741C49.6741 19 49.6377 18.9455 49.5649 18.8727H48.8006C48.7278 18.9455 48.6914 18.9818 48.6914 18.9818C48.655 18.9818 48.6186 19 48.5822 19.0364H47.4903L47.3812 18.9273H46.6714C46.6714 18.9273 46.635 18.9455 46.5622 18.9818H46.1801C46.1437 18.9818 46.0891 18.9455 46.0163 18.8727C46.0163 18.9091 45.9799 18.9636 45.9071 19.0364C45.8343 18.9636 45.7979 18.9091 45.7979 18.8727L45.6341 19.0364H45.3612C45.3612 18.9636 45.3248 18.9273 45.252 18.9273C45.252 18.9273 45.1792 18.9636 45.0336 19.0364L44.8152 18.8727H42.6315L42.4677 19.0909V19.8545C42.4677 19.8182 42.5041 19.8727 42.5769 20.0182V20.2909L42.3039 20.5091L42.4131 20.6182C42.4495 20.6909 42.4677 20.8364 42.4677 21.0545L42.1947 21.2727C42.1947 21.3455 42.2129 21.3818 42.2493 21.3818C42.2857 21.3455 42.3403 21.3455 42.4131 21.3818V22.0909L42.3039 22.2V22.4727C42.3767 22.5455 42.4313 22.5818 42.4677 22.5818V24.1636C42.3949 24.2364 42.3403 24.2727 42.3039 24.2727L42.5223 24.4909H43.5596L43.7234 24.6545L43.9963 24.4909H45.0336C45.0336 24.5273 45.0336 24.5455 45.0336 24.5455C45.07 24.5455 45.0882 24.5636 45.0882 24.6H45.4158C45.4158 24.6 45.4522 24.5636 45.525 24.4909H46.5622L46.6714 24.6C46.7078 24.6 46.7624 24.5636 46.8352 24.4909H47.2174L47.3266 24.6L47.4903 24.4909C47.5631 24.4545 47.6177 24.4727 47.6541 24.5455C47.6905 24.5818 47.7451 24.6182 47.8179 24.6545L48.0363 24.4909H49.1828C49.2919 24.6 49.3647 24.6364 49.4011 24.6C49.4375 24.6 49.4921 24.5636 49.5649 24.4909H51.4757L51.6941 24.6545Z" fill="#E4E4E4"/>
<path d="M97.9893 31.1455H97.6072L97.4434 31.3091H97.0612C97.0612 31.3091 97.0066 31.2727 96.8975 31.2H96.5153C96.5153 31.2 96.4789 31.2364 96.4061 31.3091C96.3333 31.2364 96.2605 31.2 96.1877 31.2C96.1149 31.1636 96.0421 31.1091 95.9694 31.0364H95.751L95.6418 31.2545C95.6054 31.2909 95.569 31.2909 95.5326 31.2545C95.5326 31.2182 95.4962 31.2 95.4234 31.2H95.0958C95.0595 31.2 95.0049 31.2364 94.9321 31.3091C94.9321 31.2364 94.8957 31.2 94.8229 31.2H94.0586C94.0222 31.2 93.9676 31.2364 93.8948 31.3091H93.7856L93.6764 31.1455H93.0213L92.8575 31.3091H92.6391L92.5299 31.2H90.51C90.51 31.2 90.4736 31.2182 90.4008 31.2545C90.3644 31.2545 90.3098 31.2182 90.237 31.1455C90.1278 31.2182 90.0004 31.2727 89.8548 31.3091C89.7456 31.3818 89.6547 31.4727 89.5819 31.5818C89.5819 31.5091 89.5637 31.4545 89.5273 31.4182C89.5273 31.4182 89.5273 31.3818 89.5273 31.3091C89.4545 31.3091 89.3999 31.2909 89.3635 31.2545C89.3271 31.2182 89.3089 31.0727 89.3089 30.8182C89.2361 30.8182 89.1815 30.8182 89.1451 30.8182C89.1451 30.7818 89.1087 30.7636 89.0359 30.7636V29.9455C88.9631 29.8727 88.8903 29.8364 88.8175 29.8364C88.7812 29.8 88.7266 29.7455 88.6538 29.6727L88.763 29.5636V29.1818C88.7266 29.1091 88.6902 29.0364 88.6538 28.9636C88.6174 28.8909 88.5628 28.8182 88.49 28.7455V28.2545L88.2716 27.8182C88.2352 27.7455 88.217 27.6909 88.217 27.6545C88.2534 27.5818 88.2716 27.5091 88.2716 27.4364C88.2716 27.4 88.2898 27.3818 88.3262 27.3818L87.9986 27V26.7273L87.7257 26.2364C87.7985 26.0909 87.7803 25.9636 87.6711 25.8545C87.5619 25.7091 87.5437 25.5636 87.6165 25.4182L87.3435 24.9273V24.4909L87.1797 24.3273V24.2182L86.9613 23.9455V23.4C86.8886 23.3273 86.8522 23.2909 86.8522 23.2909V22.8C86.7794 22.7273 86.7066 22.6727 86.6338 22.6364C86.561 22.5636 86.5428 22.4727 86.5792 22.3636C86.47 22.2909 86.4154 22.1636 86.4154 21.9818L86.3062 21.8182V21.4909L86.1424 21.1091C86.1424 21.0364 86.1242 20.9818 86.0878 20.9455C86.0515 20.8727 86.0333 20.8 86.0333 20.7273C85.9969 20.6545 85.9605 20.5818 85.9241 20.5091C85.8877 20.4364 85.8877 20.3636 85.9241 20.2909C85.8513 20.2182 85.7967 20.1818 85.7603 20.1818V19.9091C85.7603 19.9091 85.7239 19.8727 85.6511 19.8V19.2545L85.3781 18.9818C85.3781 18.9455 85.3781 18.9091 85.3781 18.8727C85.4145 18.8 85.4145 18.7455 85.3781 18.7091C85.2689 18.6364 85.2143 18.5636 85.2143 18.4909C85.2507 18.3818 85.2143 18.2909 85.1052 18.2182V17.8364C85.0324 17.7636 84.996 17.7091 84.996 17.6727C84.996 17.6364 84.9778 17.5818 84.9414 17.5091C84.8686 17.4364 84.8322 17.3818 84.8322 17.3455C84.8686 17.3091 84.8686 17.2727 84.8322 17.2364C84.7594 17.0182 84.723 16.8545 84.723 16.7455C84.6502 16.7091 84.6138 16.6545 84.6138 16.5818C84.6502 16.5091 84.632 16.4364 84.5592 16.3636C84.4864 16.2909 84.45 16.2182 84.45 16.1455C84.4864 16.0364 84.4864 15.9455 84.45 15.8727C84.45 15.8364 84.4136 15.7818 84.3408 15.7091V15.3818C84.3044 15.3091 84.2681 15.2727 84.2317 15.2727C84.1953 15.2727 84.1953 15.2364 84.2317 15.1636C84.2317 15.0909 84.1953 15.0364 84.1225 15C84.0497 14.9273 84.0315 14.8545 84.0679 14.7818V14.7273C84.0679 14.6909 84.0497 14.6727 84.0133 14.6727C84.0133 14.6727 84.0133 14.6545 84.0133 14.6182C83.9405 14.5091 83.8859 14.4 83.8495 14.2909C83.8495 14.1455 83.7949 14.0182 83.6857 13.9091V13.5273L83.5765 13.3636V12.9818L83.4127 12.8727V12.6L83.1944 12.3818C83.1944 12.3091 83.1762 12.2545 83.1398 12.2182C83.1398 12.1455 83.1398 12.0727 83.1398 12C83.067 12.0364 83.0124 12.0727 82.976 12.1091C82.976 12.1455 82.9578 12.1818 82.9214 12.2182V12.6C82.8486 12.6727 82.794 12.7091 82.7576 12.7091L82.9214 12.9273C82.8486 13 82.7758 13.0727 82.703 13.1455C82.6666 13.1818 82.6484 13.2364 82.6484 13.3091C82.6484 13.3818 82.612 13.4364 82.5392 13.4727C82.4664 13.5091 82.4118 13.6182 82.3755 13.8V14.3455L81.9933 14.6727C82.0661 14.7818 82.1025 14.9273 82.1025 15.1091C82.0297 15.1818 81.9569 15.2182 81.8841 15.2182V15.7091C81.8841 15.7455 81.9205 15.8 81.9933 15.8727C81.8841 15.9455 81.8113 16.0364 81.7749 16.1455C81.7385 16.2545 81.6839 16.3455 81.6111 16.4182V16.7455C81.6111 16.7455 81.5929 16.7636 81.5565 16.8C81.4837 16.8727 81.4474 16.9455 81.4474 17.0182C81.4838 17.0909 81.4656 17.1636 81.3928 17.2364C81.32 17.3091 81.3018 17.3818 81.3382 17.4545C81.3746 17.4909 81.3564 17.5455 81.2836 17.6182C81.2108 17.6909 81.1744 17.7636 81.1744 17.8364C81.1744 17.8727 81.138 17.9091 81.0652 17.9455V18.2182L80.956 18.3273C81.0288 18.4 81.0652 18.4364 81.0652 18.4364L80.8468 18.7091V19.2545L80.683 19.3636V19.7455L80.4647 20.0182V20.3455C80.3191 20.5636 80.2281 20.7273 80.1917 20.8364V21.1636L80.0279 21.3273V21.6C79.9187 21.7091 79.8823 21.8 79.9187 21.8727C79.9551 21.8727 80.0461 21.9091 80.1917 21.9818C80.1553 22.0182 80.0461 22.0364 79.8641 22.0364L79.6458 22.4182V22.9091L79.3728 23.0727V23.5091C79.3364 23.6182 79.2454 23.7818 79.0998 24V24.3273C79.0998 24.3273 79.0634 24.3636 78.9906 24.4364C78.9906 24.5091 78.9906 24.5818 78.9906 24.6545C79.027 24.6909 79.027 24.7455 78.9906 24.8182C78.9542 24.8545 78.8996 25 78.8269 25.2545C78.7541 25.4364 78.6813 25.5636 78.6085 25.6364V26.0182L78.4447 26.1818V26.5091L78.0625 27.2182V27.6545C77.9897 27.7636 77.9533 27.9091 77.9533 28.0909L77.6804 28.3636V28.6364L77.5712 28.7455C77.5712 28.8182 77.5712 28.8909 77.5712 28.9636C77.5712 29.0364 77.644 29.1091 77.7896 29.1818C77.7168 29.1818 77.6622 29.2 77.6258 29.2364C77.5894 29.2364 77.5348 29.2364 77.462 29.2364C77.4256 29.2727 77.4074 29.3091 77.4074 29.3455C77.4438 29.3818 77.4438 29.4364 77.4074 29.5091C77.4074 29.5455 77.371 29.6 77.2982 29.6727C77.371 29.7455 77.4074 29.7818 77.4074 29.7818C77.3346 29.8545 77.2982 29.9273 77.2982 30C77.2982 30.0727 77.2618 30.1455 77.189 30.2182C77.2254 30.2909 77.2072 30.3636 77.1344 30.4364C77.0616 30.5091 77.0253 30.5818 77.0253 30.6545C77.0616 30.7636 77.0434 30.8545 76.9707 30.9273C76.8979 31 76.8615 31.0727 76.8615 31.1455C76.7887 31.1818 76.7159 31.2 76.6431 31.2C76.5703 31.1636 76.4975 31.1455 76.4247 31.1455H76.0426L75.8242 30.9273C75.6058 30.8545 75.4784 30.8909 75.442 31.0364H74.8961C74.8233 31.1091 74.7687 31.1455 74.7323 31.1455L74.6231 31.0364H74.241C74.1682 31.1091 74.1136 31.1455 74.0772 31.1455H73.695L73.5858 31.0364L73.4766 31.1455H72.7669C72.7669 31.1455 72.7305 31.1091 72.6577 31.0364C72.5849 31.1091 72.5485 31.1455 72.5485 31.1455H71.2383L71.0745 31.3091L70.7469 30.9273C70.6741 30.9273 70.6378 30.9818 70.6378 31.0909C70.6014 31.1273 70.4558 31.1455 70.201 31.1455C70.1646 31.1455 70.11 31.1091 70.0372 31.0364L69.7643 31.3091C69.7279 31.3091 69.6369 31.2727 69.4913 31.2H68.3448L68.2356 31.3091H67.8535L67.7443 31.2C67.6351 31.1273 67.5259 31.1273 67.4167 31.2C67.3439 31.2727 67.2711 31.3091 67.1983 31.3091C67.1619 31.3091 67.1255 31.3273 67.0891 31.3636C67.0891 31.4 67.0527 31.4182 66.98 31.4182H66.7616C66.7616 31.4909 66.7434 31.5455 66.707 31.5818C66.707 31.6545 66.707 31.7273 66.707 31.8C66.6342 31.8 66.5978 31.7818 66.5978 31.7455C66.5978 31.7091 66.5614 31.6545 66.4886 31.5818C66.4522 31.5818 66.434 31.5636 66.434 31.5273C66.434 31.5273 66.4158 31.5273 66.3794 31.5273C66.343 31.4545 66.2884 31.3636 66.2156 31.2545C66.1792 31.1818 66.1792 31.0909 66.2156 30.9818L65.9427 30.7091V29.7818C66.0519 29.6727 66.0883 29.6 66.0519 29.5636L65.8335 29.4V29.2909L65.5605 29.0182V28.5273L65.4513 28.3636V27.7091L65.2876 27.6V27.1091C65.1784 26.8182 65.051 26.5818 64.9054 26.4C64.9782 26.3273 65.0146 26.2909 65.0146 26.2909L64.7962 26.0182V25.5273C64.7598 25.4545 64.7052 25.4182 64.6324 25.4182C64.596 25.3818 64.596 25.3273 64.6324 25.2545C64.596 25.1818 64.505 25.0727 64.3595 24.9273L64.4686 24.7091C64.3959 24.4909 64.2867 24.3273 64.1411 24.2182L64.2503 24.0545L64.0319 23.8364C64.0683 23.6909 64.0319 23.5636 63.9227 23.4545C63.8499 23.3091 63.8499 23.1455 63.9227 22.9636C63.9227 22.9636 63.9591 22.9273 64.0319 22.8545L63.5951 22.5818V22.1455L63.3222 21.6V21.4364L63.1038 21.2727V20.7273L62.667 19.9636V19.6364L62.4487 19.4727V18.7636C62.3759 18.6909 62.3395 18.6364 62.3395 18.6C62.3395 18.5273 62.3031 18.4727 62.2303 18.4364C62.1939 18.3636 62.1757 18.2545 62.1757 18.1091C62.1393 18.0364 62.1029 17.9636 62.0665 17.8909C62.0301 17.8182 61.9755 17.7273 61.9027 17.6182V17.3455L61.5206 16.5818V16.2545L61.4114 16.1455V15.6545C61.3386 15.5818 61.284 15.5091 61.2476 15.4364C61.2112 15.3636 61.1748 15.2909 61.1384 15.2182V15.0545C61.102 14.9818 61.0656 14.9091 61.0292 14.8364C60.9928 14.7273 60.9746 14.6182 60.9746 14.5091C60.9746 14.5091 60.9382 14.4909 60.8654 14.4545V14.0727C60.7926 14 60.7562 13.9455 60.7562 13.9091V13.6909L60.5379 13.3091L60.3741 13.1455C60.3741 13.0727 60.3559 12.9818 60.3195 12.8727C60.3195 12.7636 60.3195 12.6727 60.3195 12.6C60.2103 12.5273 60.1739 12.4364 60.2103 12.3273C60.2467 12.2182 60.2103 12.1455 60.1011 12.1091V11.5636C60.0283 11.4909 59.9737 11.4182 59.9373 11.3455C59.9373 11.2364 59.9009 11.1455 59.8282 11.0727C59.719 10.9636 59.6644 10.8182 59.6644 10.6364L59.446 10.5273C59.446 10.3455 59.446 10.2 59.446 10.0909C59.446 9.94545 59.4278 9.78182 59.3914 9.6C59.3186 9.52727 59.3004 9.45455 59.3368 9.38182C59.3732 9.30909 59.355 9.23636 59.2822 9.16364C59.2094 9.12727 59.173 9.07273 59.173 9C59.173 8.92727 59.1366 8.87273 59.0638 8.83636V8.45455C58.991 8.38182 58.9365 8.30909 58.9001 8.23636C58.8637 8.16364 58.8273 8.09091 58.7909 8.01818C58.8637 7.83636 58.8455 7.69091 58.7363 7.58182C58.6271 7.47273 58.6089 7.34546 58.6817 7.2C58.5361 6.98182 58.4451 6.81818 58.4087 6.70909V6.32727L58.1357 6.10909V5.61818C58.063 5.47273 58.0266 5.4 58.0266 5.4C58.0266 5.25455 57.972 5.14545 57.8628 5.07273C57.79 4.96364 57.79 4.83636 57.8628 4.69091C57.7536 4.61818 57.699 4.52727 57.699 4.41818C57.7354 4.30909 57.699 4.21818 57.5898 4.14545C57.6626 4.07273 57.6444 4.01818 57.5352 3.98182C57.4624 3.90909 57.4442 3.83636 57.4806 3.76364C57.517 3.65455 57.4988 3.58182 57.426 3.54545C57.3532 3.47273 57.3168 3.4 57.3168 3.32727C57.3532 3.25455 57.335 3.18182 57.2622 3.10909C57.1894 3.03636 57.1712 2.96364 57.2076 2.89091C57.2804 2.78182 57.2622 2.69091 57.153 2.61818C57.0439 2.54545 57.0257 2.47273 57.0985 2.4L56.8255 1.85454V1.14545C56.7527 1.03636 56.6617 0.945454 56.5525 0.872726C56.4433 0.763636 56.3705 0.618183 56.3341 0.436365L56.4979 0.163634H57.2622L57.426 0.0545448H57.8082C57.881 0.127271 57.9174 0.163634 57.9174 0.163634H61.193C61.2658 0.0909079 61.3022 0.0545448 61.3022 0.0545448H61.466C61.466 0.0545448 61.5024 0.0909079 61.5752 0.163634H63.4314C63.4314 0.0909079 63.4678 0.0545448 63.5405 0.0545448L63.7589 0.218182V0.490909C63.7589 0.527272 63.7953 0.581817 63.8681 0.654544V0.981819C63.9409 1.05454 63.9773 1.10909 63.9773 1.14545C63.9773 1.21818 63.9955 1.29091 64.0319 1.36364C64.0683 1.43636 64.1047 1.50909 64.1411 1.58182C64.1411 1.72727 64.1775 1.83636 64.2503 1.90909C64.2867 1.98182 64.2867 2.05455 64.2503 2.12727C64.2503 2.16363 64.2503 2.21818 64.2503 2.29091C64.3231 2.36364 64.3595 2.41818 64.3595 2.45455V2.67273L64.5232 2.83636V3.10909C64.596 3.18182 64.6324 3.21818 64.6324 3.21818V3.43636C64.7052 3.58182 64.778 3.72727 64.8508 3.87273C64.9236 3.98182 64.9782 4.10909 65.0146 4.25454V4.63636L65.1784 4.8V5.01818L65.2876 5.18182V5.56364C65.3603 5.6 65.3967 5.65454 65.3967 5.72727C65.3967 5.8 65.4331 5.87273 65.5059 5.94545C65.5787 5.98182 65.5969 6.03636 65.5605 6.10909C65.5605 6.18182 65.5969 6.25455 65.6697 6.32727C65.7425 6.4 65.7789 6.47273 65.7789 6.54545C65.7789 6.58182 65.7971 6.63636 65.8335 6.70909C65.7607 6.78182 65.7243 6.83636 65.7243 6.87273L65.9427 7.14545V7.36364C66.0155 7.43636 66.0519 7.49091 66.0519 7.52727C66.0519 7.52727 66.0155 7.56364 65.9427 7.63636C66.0155 7.70909 66.0519 7.76364 66.0519 7.8V8.01818L66.3248 8.29091V8.56364C66.3248 8.6 66.2884 8.65455 66.2156 8.72727C66.3248 8.8 66.3976 8.89091 66.434 9C66.4704 9.07273 66.525 9.14545 66.5978 9.21818V9.6L66.7616 9.76364V9.98182L66.98 10.2545V10.6909C67.0527 10.8 67.1073 10.9091 67.1437 11.0182C67.2165 11.1273 67.2893 11.2182 67.3621 11.2909V12.2182C67.4713 12.2909 67.5441 12.3818 67.5805 12.4909C67.6169 12.5636 67.6715 12.6364 67.7443 12.7091C67.7443 12.8545 67.7807 12.9818 67.8535 13.0909C67.9263 13.2 67.9445 13.3455 67.9081 13.5273L68.181 13.7455V14.2364C68.3266 14.1636 68.3994 14.1273 68.3994 14.1273V14.7818L68.5632 14.9455V15.4364C68.636 15.5818 68.7088 15.7273 68.7816 15.8727C68.8544 16.0182 68.9635 16.1455 69.1091 16.2545V16.9091C69.1091 16.9091 69.1273 16.9455 69.1637 17.0182C69.2365 17.3091 69.3275 17.5273 69.4367 17.6727C69.4367 17.7091 69.4185 17.7455 69.3821 17.7818L69.6005 18.2182V18.5455L69.8188 18.9818C69.8188 19.0182 69.7824 19.1091 69.7097 19.2545L69.9826 19.4182V20.0182L70.1464 20.1818V20.4L70.2556 20.5636C70.2556 20.7091 70.2738 20.8364 70.3102 20.9455C70.3466 21.0182 70.4558 21.1818 70.6378 21.4364V21.9818C70.7105 22.0545 70.7651 22.0909 70.8015 22.0909C70.7287 22.2727 70.7651 22.4182 70.9107 22.5273C70.9471 22.6727 71.0017 22.8182 71.0745 22.9636C71.1473 23.0727 71.2201 23.2182 71.2929 23.4V23.6727C71.3657 23.7455 71.4021 23.7818 71.4021 23.7818V24.0545L71.5659 24.2182C71.5659 24.2545 71.5477 24.3091 71.5113 24.3818C71.5113 24.4182 71.5477 24.4727 71.6204 24.5455C71.6932 24.4727 71.7296 24.4 71.7296 24.3273C71.8024 24.2909 71.8206 24.2364 71.7842 24.1636C71.7478 24.0909 71.8024 24.0364 71.948 24V23.6182C72.0208 23.5091 72.0754 23.4 72.1118 23.2909C72.1482 23.1818 72.221 23.0909 72.3302 23.0182V22.6364L72.4394 22.5273C72.4758 22.4545 72.4939 22.3455 72.4939 22.2C72.5303 22.2 72.5485 22.2 72.5485 22.2C72.5849 22.1636 72.6395 22.1455 72.7123 22.1455V21.4909L72.9853 21.2182C73.0217 21.1455 72.9853 21.0545 72.8761 20.9455C72.9489 20.8727 72.9853 20.7818 72.9853 20.6727C73.0217 20.5636 73.1127 20.4909 73.2583 20.4545V19.8545C73.2947 19.7455 73.3857 19.5818 73.5312 19.3636V18.9818C73.5312 18.9818 73.5676 18.9455 73.6404 18.8727V18.6L73.8042 18.4364V18.2182C73.8042 18.2182 73.8406 18.1818 73.9134 18.1091V17.7818L74.1864 17.5636L74.0226 17.4C74.059 17.4 74.1136 17.3636 74.1864 17.2909V16.9091C74.1864 16.8727 74.2228 16.8182 74.2955 16.7455V16.5273L74.4047 16.4182C74.4411 16.3818 74.4411 16.3455 74.4047 16.3091C74.4047 16.2727 74.4229 16.2182 74.4593 16.1455C74.4593 16.1091 74.4957 16.0545 74.5685 15.9818V15.7636C74.5685 15.7273 74.5867 15.7091 74.6231 15.7091C74.6595 15.6727 74.6777 15.6182 74.6777 15.5455L74.8415 15.2727V14.8364L75.0599 14.4V14.0182C75.0963 14.0182 75.1873 13.9818 75.3328 13.9091V13.4727C75.4056 13.4727 75.4602 13.4727 75.4966 13.4727C75.5694 13.4364 75.6422 13.4182 75.715 13.4182C75.715 13.3455 75.6968 13.3273 75.6604 13.3636C75.624 13.3636 75.5876 13.3455 75.5512 13.3091C75.4784 13.2364 75.4966 13.1273 75.6058 12.9818V12.4909C75.6786 12.4182 75.715 12.3636 75.715 12.3273C75.7514 12.2909 75.806 12.2545 75.8788 12.2182C75.8424 12.1455 75.8788 12.0545 75.988 11.9455V11.5636C75.988 11.5636 76.0244 11.5091 76.0972 11.4V11.0182L76.2609 10.9091V10.5273L76.3701 10.3636V10.0364C76.4429 9.96364 76.4793 9.89091 76.4793 9.81818C76.5157 9.74545 76.5703 9.67273 76.6431 9.6V9.21818C76.7159 9.14545 76.7705 9.10909 76.8069 9.10909C76.8797 9.07273 76.9525 9.03636 77.0253 9C77.0616 8.89091 77.0252 8.8 76.9161 8.72727V8.45455C77.0252 8.38182 77.0616 8.30909 77.0253 8.23636C77.0253 8.12727 77.0616 8.03636 77.1344 7.96364C77.1708 7.89091 77.2072 7.81818 77.2436 7.74545C77.3164 7.63636 77.3346 7.52727 77.2982 7.41818C77.4074 7.30909 77.462 7.16364 77.462 6.98182C77.4984 6.94545 77.5166 6.90909 77.5166 6.87273C77.553 6.83636 77.6076 6.8 77.6804 6.76364V6.10909C77.7532 6.03636 77.7896 5.98182 77.7896 5.94545V5.72727L77.9533 5.56364V5.29091C78.0261 5.21818 78.0625 5.18182 78.0625 5.18182V4.90909L78.3355 4.69091L78.4447 4.36364L78.3355 4.25454V4.14545L78.4993 3.98182V3.6C78.5357 3.56364 78.5539 3.52727 78.5539 3.49091C78.5903 3.45454 78.6449 3.41818 78.7177 3.38182C78.7541 3.30909 78.7541 3.23636 78.7177 3.16363C78.7177 3.09091 78.7541 3.01818 78.8269 2.94545C78.8996 2.90909 78.9178 2.85454 78.8814 2.78182C78.8814 2.70909 78.9178 2.63636 78.9906 2.56364V2.07273C79.0634 2 79.0998 1.94545 79.0998 1.90909C79.1362 1.87273 79.1908 1.83636 79.2636 1.8V1.2L79.4274 0.818181C79.5002 0.745455 79.5184 0.690909 79.482 0.654544C79.482 0.61818 79.482 0.581817 79.482 0.545454L79.7004 0.272727H80.0279C80.1735 0.236364 80.3555 0.145455 80.5739 0L80.7376 0.163634H81.1198C81.1926 0.0909079 81.2472 0.0545448 81.2836 0.0545448C81.2836 0.0545448 81.32 0.0909079 81.3928 0.163634H81.7749C81.8477 0.0909079 81.9023 0.0545448 81.9387 0.0545448H82.2117L82.3209 0.163634H82.6484L82.8668 0L83.1944 0.163634C83.2308 0.163634 83.2854 0.127271 83.3581 0.0545448C83.3945 0.0545448 83.4491 0.0909079 83.5219 0.163634C83.5947 0.163634 83.6675 0.127271 83.7403 0.0545448C83.8131 0.0545448 83.8495 0.0909079 83.8495 0.163634H85.2689L85.4327 0.272727L85.6511 0.163634C85.6875 0.163634 85.7603 0.21818 85.8695 0.327272L86.0878 0.218182H86.0333C86.0696 0.181817 86.1242 0.163634 86.197 0.163634H86.6338L86.7976 0.327272V0.872726L86.9613 1.03636V1.41818L87.0159 1.47273C87.0887 1.54545 87.1069 1.61818 87.0705 1.69091C87.0705 1.76364 87.1069 1.83636 87.1797 1.90909C87.2525 1.94545 87.2707 2 87.2343 2.07273C87.1979 2.14545 87.2161 2.2 87.2889 2.23636C87.3617 2.30909 87.3799 2.38182 87.3435 2.45455C87.3071 2.52727 87.3253 2.58182 87.3981 2.61818C87.4709 2.69091 87.4891 2.76364 87.4527 2.83636C87.4163 2.90909 87.4345 2.96364 87.5073 3C87.5801 3.07273 87.5983 3.14545 87.5619 3.21818C87.5619 3.25455 87.5801 3.30909 87.6165 3.38182C87.6893 3.49091 87.7621 3.61818 87.8348 3.76364V4.25454C87.9076 4.32727 87.944 4.36364 87.944 4.36364C87.9804 4.54545 88.035 4.70909 88.1078 4.85454C88.1806 4.96364 88.1806 5.10909 88.1078 5.29091L88.3808 5.50909L88.1078 6C88.1806 6.03636 88.2352 6.05455 88.2716 6.05455C88.3444 6.05455 88.399 6.09091 88.4354 6.16364C88.581 6.38182 88.6538 6.56364 88.6538 6.70909L88.763 6.87273V7.25454C88.8357 7.29091 88.8721 7.34545 88.8721 7.41818C88.8721 7.49091 88.9085 7.56364 88.9813 7.63636C89.0177 7.63636 89.0359 7.69091 89.0359 7.8C89.0359 7.87273 89.0541 7.96364 89.0905 8.07273C89.1633 8.14546 89.1815 8.23636 89.1451 8.34545C89.1451 8.41818 89.1815 8.49091 89.2543 8.56364C89.3271 8.63636 89.3453 8.70909 89.3089 8.78182C89.4181 8.92727 89.4545 9.07273 89.4181 9.21818C89.4909 9.29091 89.5273 9.32727 89.5273 9.32727V10.1455L89.8002 10.3636C89.8002 10.5455 89.8366 10.7273 89.9094 10.9091C90.0186 11.0545 90.1096 11.2182 90.1824 11.4V11.6727L90.3462 11.8364C90.3462 12.0182 90.3644 12.1273 90.4008 12.1636C90.5464 12.3091 90.6009 12.4364 90.5645 12.5455C90.5645 12.6182 90.5827 12.6909 90.6191 12.7636C90.6919 12.8364 90.7283 12.9091 90.7283 12.9818V13.1455L91.0013 13.5273V13.9636L91.3835 14.7273V15.3273C91.6018 15.5455 91.7292 15.7273 91.7656 15.8727V16.0909L91.9294 16.2545V16.5273C91.9294 16.5273 91.9658 16.5636 92.0386 16.6364L91.8202 16.9091C92.0386 16.9818 92.1478 17.0182 92.1478 17.0182V17.4L92.3116 17.5636V17.8909C92.3844 18.0364 92.4207 18.1273 92.4207 18.1636C92.4207 18.2364 92.4389 18.2909 92.4753 18.3273C92.5481 18.3636 92.5663 18.4182 92.5299 18.4909C92.5299 18.5636 92.5663 18.6364 92.6391 18.7091C92.7119 18.7455 92.7301 18.8 92.6937 18.8727C92.6573 18.9455 92.6573 19.0182 92.6937 19.0909C92.7665 19.1636 92.8029 19.2364 92.8029 19.3091C92.8029 19.3818 92.8211 19.4545 92.8575 19.5273C92.8939 19.5636 92.9121 19.6182 92.9121 19.6909C92.9485 19.7636 92.9667 19.8364 92.9667 19.9091C92.9667 19.9455 93.0031 19.9818 93.0759 20.0182C93.0031 20.1273 93.0031 20.2182 93.0759 20.2909C93.1851 20.3636 93.2215 20.4545 93.1851 20.5636C93.1851 20.6364 93.2215 20.7091 93.2943 20.7818C93.367 20.8545 93.3852 20.9273 93.3488 21C93.3124 21.0727 93.3124 21.1455 93.3488 21.2182C93.4216 21.2545 93.458 21.3091 93.458 21.3818C93.458 21.4545 93.4762 21.5091 93.5126 21.5455C93.549 21.5818 93.5854 21.6364 93.6218 21.7091L93.458 21.8727C93.5308 21.9091 93.5672 21.9455 93.5672 21.9818C93.6036 22.0182 93.6582 22.0727 93.731 22.1455V22.3091L94.1132 23.0727V23.6727L94.004 23.7818L94.3861 24.0545L94.2769 24.1636V24.2182L94.4407 24.3818H94.6045L94.7683 24V23.8364C94.8411 23.7636 94.8775 23.7091 94.8775 23.6727V23.4L95.0413 23.2909V22.9636C95.1141 22.8545 95.1686 22.7636 95.205 22.6909C95.2414 22.5818 95.3142 22.4909 95.4234 22.4182V21.9273H95.6418C95.6418 21.8909 95.66 21.8727 95.6964 21.8727V21.2182L95.8056 21.0545V20.7273L96.0239 20.3455L96.1877 20.1818V19.8L96.3515 19.6364C96.2787 19.5636 96.2423 19.5273 96.2423 19.5273L96.4607 19.0909V18.7636C96.4971 18.6909 96.5153 18.6364 96.5153 18.6C96.5517 18.5273 96.6063 18.4545 96.6791 18.3818C96.7519 18.3091 96.7701 18.2545 96.7337 18.2182C96.6973 18.1818 96.6973 18.1273 96.7337 18.0545L97.0066 17.6727V17.1818L97.225 16.9091C97.225 16.7636 97.2432 16.6545 97.2796 16.5818C97.3524 16.4727 97.4252 16.3636 97.498 16.2545L97.3888 16.1455C97.3524 16.0364 97.3524 15.9455 97.3888 15.8727C97.4252 15.8 97.4616 15.7273 97.498 15.6545C97.5344 15.5818 97.5708 15.5273 97.6072 15.4909C97.68 15.4545 97.7346 15.4 97.771 15.3273L97.6618 15.2182C97.6618 15.1091 97.6982 15.0182 97.771 14.9455C97.8437 14.8727 97.8437 14.7818 97.771 14.6727L98.0439 14.4545C98.0439 14.4545 98.0257 14.4364 97.9893 14.4L98.1531 14.1273V13.5273C98.2259 13.4545 98.2623 13.4 98.2623 13.3636C98.2987 13.2909 98.3351 13.2182 98.3715 13.1455C98.4079 13.1091 98.4261 13.0545 98.4261 12.9818C98.4625 12.9091 98.4989 12.8364 98.5353 12.7636C98.5717 12.6545 98.5899 12.5455 98.5899 12.4364L98.6991 12.3273V11.9455C98.6991 11.9455 98.7355 11.9091 98.8082 11.8364V11.5636C98.9174 11.4909 98.9902 11.4182 99.0266 11.3455C99.063 11.2364 99.1176 11.1273 99.1904 11.0182V10.2545L99.4634 10.0364V9.76364L99.7363 9.43636L99.6272 9.21818L99.8455 8.94545V8.34545C99.8819 8.27273 99.9183 8.23636 99.9547 8.23636C99.9911 8.2 100.009 8.14546 100.009 8.07273L100.228 7.74545V7.14545L100.337 7.03636C100.373 6.96364 100.391 6.85455 100.391 6.70909L100.61 6.49091V6.10909L100.774 5.94545V5.56364L100.883 5.45455V5.18182L101.047 5.01818V4.74545C101.083 4.74545 101.119 4.74545 101.156 4.74545C101.192 4.70909 101.229 4.69091 101.265 4.69091V4.03636C101.374 3.92727 101.429 3.8 101.429 3.65454C101.502 3.58182 101.52 3.50909 101.483 3.43636C101.483 3.32727 101.52 3.25455 101.593 3.21818C101.665 3.14545 101.684 3.07273 101.647 3C101.647 2.89091 101.702 2.83636 101.811 2.83636V2.50909C101.884 2.4 101.938 2.29091 101.975 2.18182C102.047 2.03636 102.12 1.90909 102.193 1.8L102.084 1.63636C102.084 1.63636 102.12 1.6 102.193 1.52727C102.229 1.45454 102.229 1.4 102.193 1.36364C102.193 1.32727 102.211 1.27273 102.248 1.2C102.32 1.05455 102.393 0.909091 102.466 0.763636C102.539 0.618181 102.648 0.509091 102.794 0.436365C102.866 0.436365 102.921 0.436365 102.957 0.436365C102.994 0.399999 103.048 0.363635 103.121 0.327272H103.831C103.867 0.327272 103.885 0.345453 103.885 0.381817C103.885 0.381817 103.904 0.381817 103.94 0.381817C103.976 0.381817 104.013 0.363635 104.049 0.327272L104.104 0.272727H105.523C105.56 0.272727 105.614 0.236363 105.687 0.163634H105.796C105.869 0.236363 105.905 0.272727 105.905 0.272727H106.724C106.724 0.272727 106.779 0.236363 106.888 0.163634C106.852 0.163634 106.943 0.199999 107.161 0.272727H107.489L107.598 0.163634L107.762 0.272727H108.526C108.599 0.272727 108.635 0.236363 108.635 0.163634C108.708 0.236363 108.763 0.272727 108.799 0.272727H109.017C109.09 0.345453 109.163 0.399999 109.236 0.436365C109.308 0.436365 109.381 0.472728 109.454 0.545454C109.49 0.509091 109.509 0.436363 109.509 0.327272C109.545 0.290909 109.581 0.272727 109.618 0.272727C109.654 0.272727 109.782 0.290909 110 0.327272C110 0.363635 109.964 0.418181 109.891 0.490909C109.891 0.490909 109.927 0.527272 110 0.599999C110 0.636362 109.964 0.690908 109.891 0.763636V1.25455C109.854 1.32727 109.763 1.4 109.618 1.47273V1.90909L109.236 2.34545C109.236 2.38182 109.217 2.41818 109.181 2.45455C109.145 2.49091 109.126 2.52727 109.126 2.56364C109.126 2.74545 109.072 2.89091 108.963 3C108.963 3.07273 108.926 3.14545 108.854 3.21818C108.926 3.29091 108.963 3.34545 108.963 3.38182L108.744 3.6C108.708 3.67273 108.69 3.74546 108.69 3.81818C108.726 3.85454 108.708 3.89091 108.635 3.92727C108.562 4 108.544 4.07273 108.581 4.14545C108.617 4.21818 108.599 4.29091 108.526 4.36364C108.453 4.4 108.435 4.45455 108.471 4.52727C108.508 4.56364 108.49 4.61818 108.417 4.69091L108.198 5.07273C108.162 5.18182 108.162 5.30909 108.198 5.45455C108.235 5.56364 108.235 5.69091 108.198 5.83636C107.944 6.09091 107.798 6.36364 107.762 6.65454C107.762 6.65454 107.743 6.69091 107.707 6.76364V6.98182L107.543 7.14545C107.507 7.21818 107.507 7.27273 107.543 7.30909C107.616 7.30909 107.652 7.34545 107.652 7.41818L107.434 7.63636V8.01818L107.27 8.18182C107.27 8.25455 107.27 8.32727 107.27 8.4C107.27 8.43636 107.234 8.49091 107.161 8.56364C107.198 8.63636 107.179 8.70909 107.107 8.78182C107.034 8.81818 107.016 8.87273 107.052 8.94545C107.088 8.94545 107.107 8.96364 107.107 9C107.107 9.07273 107.125 9.10909 107.161 9.10909C107.125 9.10909 107.088 9.12727 107.052 9.16364C107.052 9.16364 107.016 9.16364 106.943 9.16364C106.87 9.23636 106.852 9.30909 106.888 9.38182C106.925 9.45455 106.888 9.52727 106.779 9.6C106.743 9.67273 106.724 9.74545 106.724 9.81818C106.761 9.85455 106.724 9.90909 106.615 9.98182V10.2545C106.615 10.2909 106.579 10.3455 106.506 10.4182V10.6364C106.433 10.7091 106.397 10.7636 106.397 10.8V11.0182L106.233 11.1818V11.5636C106.197 11.6 106.16 11.6182 106.124 11.6182C106.087 11.6182 106.069 11.6364 106.069 11.6727C105.996 11.8182 105.978 11.9273 106.015 12C106.087 12.0364 106.124 12.0909 106.124 12.1636C106.124 12.2364 106.087 12.2909 106.015 12.3273C105.942 12.3636 105.887 12.4182 105.851 12.4909C105.887 12.5636 105.851 12.6909 105.742 12.8727C105.705 12.9455 105.687 13.0182 105.687 13.0909C105.723 13.1273 105.705 13.1818 105.632 13.2545C105.56 13.2909 105.523 13.3455 105.523 13.4182C105.56 13.4909 105.541 13.5636 105.469 13.6364V14.1273C105.323 14.3455 105.232 14.5091 105.196 14.6182C105.196 14.7273 105.159 14.8364 105.087 14.9455C105.05 15.0182 104.996 15.1455 104.923 15.3273V15.7636C104.85 15.8 104.814 15.8545 104.814 15.9273C104.85 16 104.832 16.0727 104.759 16.1455C104.723 16.2182 104.686 16.2909 104.65 16.3636C104.65 16.4 104.613 16.4545 104.541 16.5273V17.0182C104.468 17.1273 104.377 17.2182 104.268 17.2909C104.34 17.4 104.322 17.5091 104.213 17.6182C104.14 17.6909 104.122 17.7818 104.158 17.8909C104.086 17.9636 104.049 18.0545 104.049 18.1636C104.049 18.2727 104.049 18.3636 104.049 18.4364L103.776 18.8727V19.2L103.503 19.6909V20.0182C103.431 20.0909 103.394 20.1455 103.394 20.1818C103.394 20.3273 103.358 20.4545 103.285 20.5636C103.212 20.6364 103.212 20.7636 103.285 20.9455L103.012 21.1636V21.6C102.939 21.6727 102.885 21.7091 102.848 21.7091V21.9818C102.775 22.0545 102.739 22.1091 102.739 22.1455V22.5273L102.466 22.7455L102.63 23.0182L102.357 23.1273C102.32 23.2 102.302 23.2727 102.302 23.3455C102.339 23.4182 102.357 23.4909 102.357 23.5636C102.32 23.5636 102.266 23.6 102.193 23.6727V23.9455L102.084 24.0545V24.3818L101.811 24.9273L101.92 25.0909C101.847 25.1636 101.793 25.2545 101.756 25.3636C101.72 25.4727 101.665 25.5636 101.593 25.6364C101.593 25.6727 101.629 25.7273 101.702 25.8C101.629 25.9091 101.556 26.0182 101.483 26.1273C101.447 26.2364 101.374 26.3455 101.265 26.4545L101.374 26.6727V26.7273C101.301 26.8 101.247 26.9091 101.21 27.0545C101.174 27.1636 101.119 27.2545 101.047 27.3273C101.083 27.4364 101.065 27.5455 100.992 27.6545C100.919 27.7273 100.883 27.8182 100.883 27.9273C100.883 28 100.846 28.0909 100.774 28.2C100.737 28.2727 100.701 28.3455 100.664 28.4182V28.8545C100.592 28.9273 100.537 29 100.501 29.0727C100.501 29.1455 100.464 29.2182 100.391 29.2909V29.6182L100.118 30.1091V30.5455L99.7909 31.1455H99.0266C98.9902 31.1455 98.9356 31.1091 98.8628 31.0364H98.0985L97.9893 31.1455Z" fill="#E4E4E4"/>
<path d="M15.4501 65.8909C15.4501 65.8545 15.4137 65.8 15.3409 65.7273C15.2681 65.8 15.2135 65.8364 15.1771 65.8364C15.1043 65.8727 15.0497 65.8727 15.0133 65.8364C14.9769 65.8 14.9223 65.7636 14.8496 65.7273C14.8496 65.6909 14.795 65.7273 14.6858 65.8364H14.0306L13.9215 65.7273L13.7577 65.8909L13.4847 65.7273C13.4847 65.7273 13.4483 65.7636 13.3755 65.8364H11.5193L11.4647 65.7818L11.0826 65.8909L10.9188 65.7273L10.755 65.8909H7.91612L7.75234 65.7273C7.75234 65.7273 7.71595 65.7636 7.64315 65.8364H7.261C7.261 65.8364 7.1882 65.8 7.04262 65.7273L6.82424 65.8364H6.05993L5.95074 65.7273C5.87795 65.8 5.84155 65.8545 5.84155 65.8909H0.218376C0.072792 65.7455 0.0909899 65.5818 0.27297 65.4C0.236574 65.3636 0.200178 65.3273 0.163782 65.2909C0.127386 65.2545 0.145584 65.1818 0.218376 65.0727L0.27297 65.0182C0.27297 64.9455 0.254772 64.9091 0.218376 64.9091C0.218376 64.8727 0.218376 64.8364 0.218376 64.8C0.145584 64.7273 0.109188 64.6545 0.109188 64.5818C0.145584 64.5091 0.163782 64.4364 0.163782 64.3636L0.27297 64.2C0.27297 64.1273 0.236574 64.0546 0.163782 63.9818C0.0909899 63.9091 0.0909899 63.8182 0.163782 63.7091L0.27297 63.6V62.1818C0.345762 62.1091 0.382158 62.0545 0.382158 62.0182C0.382158 62.0182 0.345762 61.9818 0.27297 61.9091V60.4909C0.345762 60.4182 0.382158 60.3636 0.382158 60.3273C0.382158 60.3273 0.345762 60.2909 0.27297 60.2182V58.6364C0.27297 58.6364 0.309366 58.6 0.382158 58.5273C0.45495 58.3455 0.418554 58.2182 0.27297 58.1455V57.7091C0.309366 57.7091 0.400356 57.6727 0.54594 57.6L0.327564 57.4909C0.327564 57.4909 0.309366 57.4545 0.27297 57.3818V56.6727C0.345762 56.6 0.382158 56.5636 0.382158 56.5636C0.382158 56.5636 0.345762 56.5273 0.27297 56.4545V56.0182C0.27297 56.0182 0.309366 55.9818 0.382158 55.9091C0.45495 55.7636 0.418554 55.6364 0.27297 55.5273V54.7091C0.345762 54.7091 0.382158 54.6727 0.382158 54.6C0.382158 54.5273 0.345762 54.4909 0.27297 54.4909V53.8364L0.436752 53.6727C0.36396 53.5273 0.309366 53.4364 0.27297 53.4V52.2545C0.27297 52.2545 0.309366 52.2182 0.382158 52.1455C0.309366 52 0.27297 51.8727 0.27297 51.7636C0.345762 51.6909 0.382158 51.6364 0.382158 51.6V51.2182C0.382158 51.1818 0.345762 51.1273 0.27297 51.0545V49.6364C0.345762 49.5636 0.382158 49.5273 0.382158 49.5273C0.309366 49.4545 0.27297 49.3273 0.27297 49.1455L0.436752 48.9273L0.27297 48.7091V47.9455C0.345762 47.9455 0.382158 47.9091 0.382158 47.8364V46.6364L0.27297 46.5273V45.4909L0.436752 45.3273C0.400356 45.2909 0.382158 45.2545 0.382158 45.2182C0.382158 45.1818 0.345762 45.1273 0.27297 45.0545V44.2909C0.27297 44.2909 0.309366 44.2545 0.382158 44.1818V43.5273C0.309366 43.4545 0.27297 43.4182 0.27297 43.4182V43.0364C0.345762 42.8909 0.382158 42.8 0.382158 42.7636C0.382158 42.7273 0.345762 42.6727 0.27297 42.6V41.1818C0.345762 41.1091 0.382158 41.0545 0.382158 41.0182L0.27297 40.9091V40.5273C0.27297 40.5273 0.309366 40.4909 0.382158 40.4182C0.382158 40.3818 0.345762 40.3273 0.27297 40.2545V39.8727C0.345762 39.8 0.382158 39.7636 0.382158 39.7636C0.382158 39.7273 0.345762 39.6727 0.27297 39.6C0.309366 39.6 0.327564 39.6 0.327564 39.6C0.327564 39.5636 0.345762 39.5455 0.382158 39.5455V39.3818C0.418554 39.3091 0.418554 39.2182 0.382158 39.1091C0.382158 39 0.382158 38.9091 0.382158 38.8364C0.382158 38.8364 0.345762 38.8 0.27297 38.7273V37.5273C0.345762 37.4545 0.382158 37.4182 0.382158 37.4182C0.382158 37.3818 0.345762 37.3273 0.27297 37.2545V34.8545H1.14647C1.14647 34.9273 1.18287 34.9636 1.25566 34.9636C1.25566 34.9636 1.29206 34.9273 1.36485 34.8545H1.74701L1.96538 34.6909L2.18376 34.8545H2.56592L2.7297 35.0182L3.00267 34.8545H3.33023C3.40302 34.9273 3.45762 34.9636 3.49401 34.9636C3.49401 34.9636 3.53041 34.9273 3.6032 34.8545H4.25833L4.36752 34.9636C4.40391 34.9636 4.45851 34.9273 4.5313 34.8545H6.71506L6.87884 34.7455L6.98803 34.8545H7.75234L7.97072 35.0727V38.5636L8.07991 38.6727C8.1163 38.7455 8.1163 38.8 8.07991 38.8364C8.07991 38.8727 8.07991 38.9091 8.07991 38.9455C8.07991 38.9818 8.04351 39.0364 7.97072 39.1091V39.4909L8.24369 39.7091C8.20729 39.7818 8.1345 39.8182 8.02531 39.8182C8.02531 39.8545 8.00711 39.8727 7.97072 39.8727C7.97072 39.8727 7.97072 39.8909 7.97072 39.9273V41.0182C8.04351 41.0909 8.07991 41.1455 8.07991 41.1818C8.07991 41.2182 8.04351 41.2727 7.97072 41.3455L8.18909 41.8364C8.1163 41.9818 8.07991 42.1091 8.07991 42.2182C8.07991 42.2545 8.04351 42.3091 7.97072 42.3818V42.8727L8.07991 42.9818C8.07991 43.0182 8.04351 43.0727 7.97072 43.1455L8.07991 43.2545V43.5273L7.97072 43.6364L8.07991 43.8V44.0182C8.07991 44.0909 8.04351 44.1455 7.97072 44.1818C7.93432 44.1818 7.93432 44.2182 7.97072 44.2909C8.04351 44.3636 8.07991 44.4182 8.07991 44.4545L8.02531 44.5091C7.98892 44.5455 7.97072 44.6 7.97072 44.6727V45.4909L8.07991 45.6V45.9818C8.07991 46.0182 8.04351 46.0727 7.97072 46.1455C7.97072 46.1455 8.00711 46.1818 8.07991 46.2545C8.07991 46.2909 8.04351 46.3455 7.97072 46.4182V46.6364C8.04351 46.7091 8.07991 46.7636 8.07991 46.8C8.1163 46.8364 8.07991 46.9091 7.97072 47.0182C7.93432 47.1636 7.95252 47.2909 8.02531 47.4C8.0981 47.4727 8.1163 47.5636 8.07991 47.6727C8.07991 47.6727 8.04351 47.7455 7.97072 47.8909C7.97072 47.8909 8.00711 47.9636 8.07991 48.1091V48.3273C8.07991 48.3636 8.04351 48.4182 7.97072 48.4909C8.00711 48.4909 8.02531 48.5091 8.02531 48.5455C8.02531 48.5455 8.04351 48.5455 8.07991 48.5455V49.1455L7.97072 49.2545V49.4727L8.1345 49.7455L7.97072 49.9091L8.1345 50.1273L7.97072 50.2909V50.9455C8.04351 51.0182 8.07991 51.0727 8.07991 51.1091L7.97072 51.2182L8.07991 51.3273V51.7091C8.00711 51.8182 7.98892 51.9636 8.02531 52.1455L8.24369 52.2545V52.3636L8.07991 52.5273V52.7455C8.07991 52.7818 8.04351 52.8364 7.97072 52.9091V53.4C8.04351 53.4727 8.07991 53.5273 8.07991 53.5636C8.1163 53.6364 8.0981 53.6909 8.02531 53.7273C7.98892 53.7636 7.97072 53.8182 7.97072 53.8909C8.00711 53.9273 8.02531 53.9636 8.02531 54C8.02531 54.0364 8.06171 54.0909 8.1345 54.1636L7.97072 54.3818V54.8727C8.04351 54.8727 8.07991 54.9091 8.07991 54.9818V55.2545C8.07991 55.3273 8.04351 55.3636 7.97072 55.3636V55.6364L8.1345 55.8L7.97072 56.0727C8.04351 56.0727 8.07991 56.1091 8.07991 56.1818L7.97072 56.2909L8.18909 56.5636L7.97072 57.0546L8.07991 57.2182L7.97072 57.3818C7.97072 57.4545 8.00711 57.5273 8.07991 57.6C8.07991 57.6 8.06171 57.6364 8.02531 57.7091C7.98892 57.7091 7.97072 57.7455 7.97072 57.8182V59.1818L8.18909 59.3455C8.18909 59.3455 8.22549 59.3091 8.29828 59.2364C8.40747 59.2 8.48026 59.2364 8.51666 59.3455C8.58945 59.4182 8.66224 59.4727 8.73503 59.5091C8.80783 59.5091 8.86242 59.4727 8.89882 59.4C8.93521 59.3273 8.98981 59.2727 9.0626 59.2364L9.28097 59.4L9.49935 59.2364H9.71772L9.88151 59.3455H10.5366C10.5366 59.3455 10.573 59.3091 10.6458 59.2364L10.755 59.3455C10.8278 59.2727 10.9006 59.2364 10.9734 59.2364L11.1918 59.3455C11.2646 59.3818 11.3009 59.3818 11.3009 59.3455C11.3373 59.2727 11.3737 59.2364 11.4101 59.2364H11.7923L11.9561 59.3455L12.1199 59.1818L12.3382 59.3455C12.411 59.3455 12.4656 59.3455 12.502 59.3455C12.5748 59.3455 12.6476 59.3091 12.7204 59.2364H12.9934L13.1025 59.3455H13.3755L13.5393 59.2364C13.6121 59.2 13.6485 59.2 13.6485 59.2364C13.6849 59.2727 13.7395 59.3091 13.8123 59.3455C13.8123 59.3091 13.8123 59.2909 13.8123 59.2909C13.8487 59.2909 13.8669 59.2727 13.8669 59.2364L14.0852 59.3455C14.158 59.3455 14.2308 59.3091 14.3036 59.2364H15.7231L15.8868 59.3455H16.1052L16.269 59.2364H16.7603C16.7967 59.2727 16.8149 59.2909 16.8149 59.2909C16.8513 59.2909 16.8877 59.3273 16.9241 59.4L17.1971 59.2364H17.9614L18.0706 59.3455L18.2344 59.2364H19.49L19.6538 59.3455L19.763 59.2364C19.763 59.2364 19.7994 59.2727 19.8722 59.3455C20.0542 59.3455 20.1998 59.3091 20.309 59.2364H23.0387C23.1114 59.3091 23.1296 59.3636 23.0932 59.4C23.0568 59.4364 23.0568 59.4909 23.0932 59.5636L22.9841 59.6727L23.0932 59.8364C23.0932 59.8364 23.0568 59.8727 22.9841 59.9455V60.6L23.0932 60.7091V61.3636L22.9841 61.5273V61.9091L23.0932 62.0182C23.1296 62.0909 23.0932 62.1818 22.9841 62.2909V62.5636L23.0932 62.7273C23.0932 62.7273 23.0568 62.8 22.9841 62.9455V63.4909C22.9841 63.4909 23.0205 63.5273 23.0932 63.6C23.0932 63.6 23.0568 63.6364 22.9841 63.7091V64.7455C22.9841 64.7818 23.0205 64.8364 23.0932 64.9091C23.0568 64.9455 23.0205 64.9636 22.9841 64.9636C22.9841 64.9636 22.9659 65 22.9295 65.0727C23.0023 65.1455 23.0568 65.2364 23.0932 65.3455V65.8364C23.0568 65.8364 23.0205 65.8545 22.9841 65.8909H22.2743L22.1106 65.7273C22.0378 65.7273 21.9832 65.7455 21.9468 65.7818C21.9468 65.8182 21.9104 65.8545 21.8376 65.8909H21.51L21.3462 65.7273C21.2734 65.8 21.2189 65.8364 21.1825 65.8364H20.8003C20.7639 65.8364 20.7093 65.8 20.6365 65.7273L20.4181 65.8909H20.036L19.8722 65.7273C19.8722 65.7273 19.8358 65.7636 19.763 65.8364H17.9614C17.9614 65.8364 17.8886 65.8 17.743 65.7273L17.5247 65.8364H16.7603L16.6512 65.7273L16.4874 65.8909H15.4501Z" fill="#E4E4E4"/>
<path d="M43.8569 59.2909C43.9297 59.2545 43.9842 59.2182 44.0206 59.1818C44.057 59.1091 44.1116 59.0545 44.1844 59.0182C44.2208 59.0182 44.2754 59.0545 44.3482 59.1273H45.9314V59.1818C45.9314 59.1818 45.9314 59.2182 45.9314 59.2909V61.4727C45.9314 61.5091 45.9496 61.5273 45.986 61.5273C45.986 61.5636 46.0224 61.6182 46.0952 61.6909L45.9314 62.0182L46.0952 62.1818C46.0224 62.2545 45.986 62.3091 45.986 62.3455V65.2909C45.986 65.3273 46.0224 65.3818 46.0952 65.4545V65.7273C46.0588 65.7273 46.0406 65.7455 46.0406 65.7818C46.0406 65.7818 46.0224 65.7818 45.986 65.7818H44.7304C44.694 65.7818 44.6394 65.8182 44.5666 65.8909H44.3482L44.1844 65.7818H43.8023C43.7295 65.8546 43.6931 65.8909 43.6931 65.8909L43.5293 65.7273L43.3109 65.8909C43.2381 65.8182 43.1653 65.7818 43.0925 65.7818C43.0198 65.7818 42.9288 65.8364 42.8196 65.9454L42.6012 65.7818L42.5466 65.8364C42.5102 65.8727 42.4738 65.8909 42.4374 65.8909H41.8369C41.8369 65.8909 41.8005 65.8546 41.7277 65.7818L41.5093 65.8909C41.5093 65.8909 41.4365 65.8546 41.2909 65.7818H40.9634C40.8906 65.8182 40.836 65.8545 40.7996 65.8909C40.7996 65.9273 40.7632 65.9273 40.6904 65.8909C40.654 65.8545 40.6176 65.8364 40.5812 65.8364C40.5812 65.8364 40.563 65.8 40.5266 65.7273C40.3083 65.8727 40.1263 65.9636 39.9807 66C39.9443 65.9636 39.9079 65.9273 39.8715 65.8909C39.8715 65.8545 39.8351 65.8182 39.7623 65.7818C39.7259 65.7818 39.6349 65.8182 39.4893 65.8909H38.8342C38.8342 65.8909 38.7978 65.8546 38.725 65.7818L38.5612 65.8909C38.5612 65.8545 38.543 65.8364 38.5067 65.8364C38.5067 65.8364 38.5067 65.8182 38.5067 65.7818C38.3247 65.7091 38.1791 65.7273 38.0699 65.8364C37.9607 65.9091 37.8333 65.9273 37.6877 65.8909C37.6513 65.8909 37.5968 65.8546 37.524 65.7818H37.0326C36.9598 65.8546 36.9234 65.8909 36.9234 65.8909L36.7596 65.7818C36.7232 65.8182 36.6869 65.8364 36.6505 65.8364C36.6505 65.8364 36.6323 65.8727 36.5959 65.9454C36.5231 65.8727 36.4321 65.8182 36.3229 65.7818H35.7224L35.6132 65.8909L35.4494 65.7818H34.7943C34.7943 65.7818 34.7579 65.8182 34.6851 65.8909C34.6123 65.9273 34.5213 65.8909 34.4121 65.7818L34.2483 65.8909C34.1755 65.8909 34.1027 65.8546 34.0299 65.7818C33.9572 65.7091 33.8662 65.7091 33.757 65.7818L33.6478 65.8909L33.484 65.7818H32.9927L32.8289 65.8909H32.4467L32.2829 65.7273L32.0646 65.8909L31.9008 65.7273L31.6824 65.8909L31.464 65.7273L31.3003 65.8909C31.3003 65.8909 31.2639 65.8546 31.1911 65.7818H29.99L29.8262 65.8909C29.8262 65.8909 29.7898 65.8546 29.717 65.7818H29.0619C29.0255 65.7818 28.9891 65.8182 28.9527 65.8909C28.9527 65.9273 28.9163 65.9273 28.8435 65.8909L28.6797 65.7818H26.9327V65.1273L26.769 64.8545L26.9327 64.6364V63.8727C26.8963 63.8727 26.8417 63.8364 26.769 63.7636V63.3818L26.9327 63.2182V62.0727C26.9691 62.0364 26.9873 62.0182 26.9873 62.0182C26.9873 61.9818 27.0237 61.9455 27.0965 61.9091L26.9327 61.6364V61.0364L26.8235 60.8727V60.6L27.0419 60.4909L26.6598 60.1091L26.9327 59.8364V58.5273C26.8599 58.5273 26.8235 58.4909 26.8235 58.4182L27.0419 57.9818C27.0419 57.9818 27.0055 57.9455 26.9327 57.8727V57.2727C26.8599 57.1636 26.8053 57.1091 26.769 57.1091L26.9327 56.7273C26.9327 56.5818 26.9691 56.4909 27.0419 56.4545C26.9691 56.3818 26.9327 56.3455 26.9327 56.3455V55.9636L26.769 55.8C26.8417 55.7273 26.8781 55.6909 26.8781 55.6909C26.8781 55.6909 26.8417 55.6182 26.769 55.4727L26.8781 55.2545C26.8781 55.2545 26.8599 55.2182 26.8235 55.1455C26.8235 55.1455 26.8599 55.1091 26.9327 55.0364V54.4909L26.769 54.3273L26.9327 54.0546V53.5636C26.8599 53.5636 26.8235 53.5273 26.8235 53.4545C26.8235 53.4545 26.8599 53.4182 26.9327 53.3455V52.9636C26.8599 52.8909 26.8235 52.8364 26.8235 52.8C26.8235 52.7636 26.8599 52.7091 26.9327 52.6364L26.769 52.4182V51.3818L26.9327 51.2182C26.9691 51.1455 26.9509 51.0909 26.8781 51.0545C26.8417 51.0182 26.8053 50.9636 26.769 50.8909C26.8053 50.8909 26.8599 50.8182 26.9327 50.6727V49.5273C26.8963 49.5273 26.8417 49.4909 26.769 49.4182V49.1455L26.9327 48.9818L26.769 48.7636V48.4909L26.9327 48.3818L26.8235 48.2727V47.7273C26.8235 47.7273 26.8599 47.6545 26.9327 47.5091C26.8963 47.4727 26.8781 47.4545 26.8781 47.4545C26.8781 47.4182 26.8417 47.3818 26.769 47.3455V47.0727C26.8417 47 26.8963 46.9636 26.9327 46.9636C26.8599 46.8909 26.8235 46.8545 26.8235 46.8545C26.7871 46.7818 26.769 46.7273 26.769 46.6909C26.8053 46.6545 26.8053 46.6 26.769 46.5273C26.8053 46.5273 26.8599 46.4909 26.9327 46.4182V46.0364L26.8235 45.9273V45.2182L26.9327 45.1091C26.8963 45.1091 26.8417 45.0727 26.769 45L26.9327 44.8364C26.9691 44.7636 26.9509 44.7273 26.8781 44.7273C26.8417 44.6909 26.8235 44.6545 26.8235 44.6182V44.1818C26.8235 44.1818 26.8417 44.1455 26.8781 44.0727C26.8781 44.0364 26.8417 43.9818 26.769 43.9091L26.9327 43.6909V43.3091C26.8963 43.2364 26.8599 43.2 26.8235 43.2C26.7871 43.1636 26.769 43.1091 26.769 43.0364C26.8417 42.9636 26.8963 42.9273 26.9327 42.9273C26.9691 42.8545 26.9509 42.8 26.8781 42.7636C26.8417 42.7273 26.8235 42.6909 26.8235 42.6545C26.8235 42.6182 26.8599 42.5636 26.9327 42.4909L26.8235 42.2182V41.8909C26.8235 41.8545 26.8599 41.8 26.9327 41.7273L26.769 41.6182L26.9327 41.4545C26.9691 41.3818 26.9509 41.3455 26.8781 41.3455C26.8417 41.3091 26.8053 41.2545 26.769 41.1818C26.8053 41.1455 26.8235 41.1091 26.8235 41.0727C26.8235 41.0364 26.8599 40.9818 26.9327 40.9091V40.2C26.8599 40.1273 26.8235 40.0727 26.8235 40.0364C26.8235 39.9636 26.8053 39.8909 26.769 39.8182L26.9327 39.6545V37.5818L26.769 37.4182L26.9327 37.3091V35.7273L27.0419 35.6182L26.9327 35.5091L27.0965 35.1273C27.0237 35.0909 26.9873 35.0727 26.9873 35.0727C26.9873 35.0364 26.9691 35 26.9327 34.9636L27.0965 34.8H28.8435L28.9527 34.9091L29.1165 34.7455L29.3349 34.9091C29.4077 34.9455 29.4441 34.9455 29.4441 34.9091C29.4805 34.8364 29.535 34.7818 29.6078 34.7455H30.9181L31.0819 34.9091L31.3003 34.8H32.4467C32.4831 34.8 32.5377 34.8364 32.6105 34.9091C32.6833 34.9455 32.7561 34.8909 32.8289 34.7455H33.1019L33.2656 34.9091C33.2656 34.8727 33.2656 34.8545 33.2656 34.8545C33.302 34.8545 33.3202 34.8364 33.3202 34.8C33.3566 34.8 33.3748 34.8 33.3748 34.8C33.4112 34.7636 33.4476 34.7455 33.484 34.7455H34.3029C34.3393 34.8545 34.4667 34.9091 34.6851 34.9091C34.6851 34.8364 34.7215 34.8 34.7943 34.8H35.3402C35.3766 34.8 35.4312 34.8364 35.504 34.9091L35.777 34.7455L36.0499 34.9091L36.2137 34.8L36.2683 34.7455H37.7969C37.8697 34.8182 37.9061 34.8727 37.9061 34.9091L38.0699 34.7455H39.2164L39.3802 34.9091H39.6531C39.6531 34.8727 39.6895 34.8182 39.7623 34.7455C39.8715 34.7455 39.9625 34.8 40.0353 34.9091C40.0353 34.8364 40.0717 34.8 40.1445 34.8C40.1445 34.8 40.1627 34.7818 40.1991 34.7455H40.6904L40.7996 34.9091C40.8724 34.8364 40.9088 34.8 40.9088 34.8H41.4547C41.5275 34.8 41.5639 34.8364 41.5639 34.9091L41.7277 34.7455H43.5293L43.6931 34.9091C43.6931 34.8364 43.7295 34.8 43.8023 34.8H45.1125C45.1125 34.8 45.1489 34.8364 45.2217 34.9091L45.3855 34.7455H45.7677L45.9314 34.9636V35.2909C46.0042 35.3636 46.0406 35.4182 46.0406 35.4545C46.0406 35.5273 46.0042 35.6 45.9314 35.6727L46.0952 35.8909C46.0588 35.8909 46.0406 35.9091 46.0406 35.9455C46.0406 35.9455 46.0224 35.9455 45.986 35.9455V36.0545C45.9496 36.2364 45.9314 36.4 45.9314 36.5455C45.9314 36.6909 45.9314 36.8545 45.9314 37.0364L46.0952 37.1455L45.986 37.3091V38.3455C45.986 38.3455 46.0224 38.3818 46.0952 38.4545C46.0224 38.5273 45.986 38.5818 45.986 38.6182V40.1455C45.986 40.1818 46.0224 40.2364 46.0952 40.3091L45.9314 40.4182C45.9314 40.4909 45.986 40.5818 46.0952 40.6909V41.0182C46.0224 41.0909 45.9678 41.1818 45.9314 41.2909C45.895 41.3636 45.8404 41.4364 45.7677 41.5091C45.7677 41.5091 45.7313 41.4727 45.6585 41.4H45.2217C45.1489 41.4727 45.1125 41.5091 45.1125 41.5091C45.0397 41.5091 45.0033 41.4727 45.0033 41.4H44.4574L44.1844 41.0727C44.148 41.1818 44.1298 41.2727 44.1298 41.3455L44.0752 41.4H42.492L42.3828 41.5091C42.31 41.5091 42.2736 41.4727 42.2736 41.4H41.0726C40.9634 41.5091 40.836 41.5636 40.6904 41.5636L40.5266 41.4H38.998L38.8342 41.5636C38.7614 41.5636 38.7068 41.5455 38.6704 41.5091C38.6704 41.4727 38.634 41.4364 38.5612 41.4L38.2883 41.5091L38.2337 41.4545C38.1609 41.4545 38.0881 41.4909 38.0153 41.5636L37.7969 41.4H37.5786C37.5058 41.4727 37.4512 41.5091 37.4148 41.5091C37.342 41.5091 37.3056 41.4727 37.3056 41.4H37.0326C36.9598 41.4727 36.9052 41.5091 36.8688 41.5091L36.7596 41.4H36.3775C36.3047 41.4727 36.2683 41.5091 36.2683 41.5091C36.2319 41.5091 36.1773 41.4727 36.1045 41.4H34.6851L34.6305 41.4545V43.2545C34.5577 43.3273 34.5213 43.3818 34.5213 43.4182C34.5213 43.4545 34.5577 43.5091 34.6305 43.5818V46.9091C34.6305 46.9455 34.6487 46.9818 34.6851 47.0182H35.1764L35.3948 46.8545L35.6132 47.0182H37.9607C37.9607 46.9455 37.9971 46.9091 38.0699 46.9091C38.1063 46.9091 38.1609 46.9455 38.2337 47.0182H38.4521C38.4521 47.0182 38.4885 47.0545 38.5612 47.1273C38.5976 47.1273 38.6522 47.0909 38.725 47.0182H39.1072L39.2164 46.9091C39.2528 46.9091 39.3074 46.9455 39.3802 47.0182H40.3083C40.3083 46.9455 40.3447 46.9091 40.4174 46.9091C40.4174 46.9091 40.4538 46.9273 40.5266 46.9636C40.5994 47.0364 40.6722 47.0545 40.745 47.0182C40.8178 46.9818 40.8906 46.9818 40.9634 47.0182C40.9634 47.0182 40.9998 47.0545 41.0726 47.1273L41.1818 47.0182H41.8369L42.0007 46.9091L42.1099 47.0182H42.3828C42.3828 47.0182 42.4192 47.0545 42.492 47.1273L42.6558 47.0182H44.0752L44.239 46.8545C44.239 46.9273 44.239 47 44.239 47.0727C44.2754 47.1091 44.2936 47.1636 44.2936 47.2364C44.4028 47.2 44.4574 47.1636 44.4574 47.1273C44.4938 47.0545 44.5302 46.9818 44.5666 46.9091H45.0033L45.1125 47.0182H45.7677L45.8768 46.9091L46.0952 47.0727C46.1316 47.1455 46.0952 47.2364 45.986 47.3455V48.2727L46.0952 48.3818C46.0952 48.3818 46.0588 48.4182 45.986 48.4909V49.2545C45.986 49.2545 46.0224 49.3273 46.0952 49.4727L45.9314 49.7455L46.0952 49.9636V50.8364C46.0224 50.9091 45.986 50.9636 45.986 51L46.0952 51.1091L45.986 51.2182V51.6C45.986 51.6 46.0224 51.6727 46.0952 51.8182C46.0952 51.8182 46.0588 51.8909 45.986 52.0364V52.3091L46.0952 52.4182V52.6909C46.0224 52.7636 45.986 52.8 45.986 52.8V53.0727C45.986 53.1455 46.0224 53.1818 46.0952 53.1818C46.0952 53.2909 46.077 53.3636 46.0406 53.4C46.0042 53.4 45.9496 53.4364 45.8768 53.5091H45.3855L45.2217 53.6727C45.1489 53.6727 45.0761 53.6364 45.0033 53.5636C44.9305 53.4909 44.8214 53.4909 44.6758 53.5636C44.6758 53.6364 44.603 53.7091 44.4574 53.7818C44.3846 53.7818 44.2936 53.8364 44.1844 53.9455L43.966 53.6727C43.8205 53.6364 43.6749 53.6364 43.5293 53.6727C43.4201 53.6727 43.2927 53.6545 43.1471 53.6182C43.0743 53.6182 43.038 53.5818 43.038 53.5091C42.9652 53.4727 42.9106 53.4909 42.8742 53.5636C42.8378 53.6 42.7832 53.6364 42.7104 53.6727L42.492 53.5091H42.219C42.219 53.5455 42.1826 53.6 42.1099 53.6727H41.8369C41.8369 53.6364 41.8005 53.5818 41.7277 53.5091H40.9634C40.8906 53.5818 40.8542 53.6182 40.8542 53.6182C40.8178 53.6182 40.7814 53.6364 40.745 53.6727H39.6531L39.5439 53.5636H38.8342C38.8342 53.5636 38.7978 53.5818 38.725 53.6182H38.3429C38.3065 53.6182 38.2519 53.5818 38.1791 53.5091C38.1791 53.5455 38.1427 53.6 38.0699 53.6727C37.9971 53.6 37.9607 53.5455 37.9607 53.5091L37.7969 53.6727H37.524C37.524 53.6 37.4876 53.5636 37.4148 53.5636C37.4148 53.5636 37.342 53.6 37.1964 53.6727L36.978 53.5091H34.7943L34.6305 53.7273V54.4909C34.6305 54.4545 34.6669 54.5091 34.7397 54.6545V54.9273L34.4667 55.1455L34.5759 55.2545C34.6123 55.3273 34.6305 55.4727 34.6305 55.6909L34.3575 55.9091C34.3575 55.9818 34.3757 56.0182 34.4121 56.0182C34.4485 55.9818 34.5031 55.9818 34.5759 56.0182V56.7273L34.4667 56.8364V57.1091C34.5395 57.1818 34.5941 57.2182 34.6305 57.2182V58.8C34.5577 58.8727 34.5031 58.9091 34.4667 58.9091L34.6851 59.1273H35.7224L35.8861 59.2909L36.1591 59.1273H37.1964C37.1964 59.1636 37.1964 59.1818 37.1964 59.1818C37.2328 59.1818 37.251 59.2 37.251 59.2364H37.5786C37.5786 59.2364 37.615 59.2 37.6877 59.1273H38.725L38.8342 59.2364C38.8706 59.2364 38.9252 59.2 38.998 59.1273H39.3802L39.4893 59.2364L39.6531 59.1273C39.7259 59.0909 39.7805 59.1091 39.8169 59.1818C39.8533 59.2182 39.9079 59.2545 39.9807 59.2909L40.1991 59.1273H41.3455C41.4547 59.2364 41.5275 59.2727 41.5639 59.2364C41.6003 59.2364 41.6549 59.2 41.7277 59.1273H43.6385L43.8569 59.2909Z" fill="#E4E4E4"/>
<path d="M70.9896 34.8C71.026 34.9091 71.0806 35 71.1534 35.0727C71.2262 35.1455 71.2444 35.2545 71.208 35.4L71.3172 35.5636V35.9455C71.3536 35.9455 71.4082 35.9818 71.481 36.0545V36.3273L71.5902 36.4364V36.7091L71.6993 36.8182C71.6993 37.0364 71.7176 37.1818 71.754 37.2545C71.8267 37.3273 71.8449 37.3818 71.8085 37.4182C71.8085 37.4545 71.8267 37.5091 71.8631 37.5818C71.8995 37.6545 71.9359 37.7273 71.9723 37.8C72.0087 37.8727 72.0087 37.9455 71.9723 38.0182C72.0087 38.0182 72.0633 38.0545 72.1361 38.1273V38.5091L72.3545 38.9455V39.3818L72.6274 39.8727V40.2C72.7002 40.2727 72.7366 40.3273 72.7366 40.3636V40.7455C72.8094 40.8182 72.864 40.8545 72.9004 40.8545V41.1273C72.9732 41.2 73.0096 41.2545 73.0096 41.2909V41.5091L73.1734 41.6727C73.1006 41.8182 73.1006 41.9455 73.1734 42.0545C73.2826 42.1636 73.319 42.2909 73.2826 42.4364C73.3554 42.5091 73.3918 42.5818 73.3918 42.6545C73.3918 42.6909 73.3918 42.7455 73.3918 42.8182C73.4282 42.8545 73.4282 42.8909 73.3918 42.9273C73.3918 42.9636 73.41 42.9818 73.4464 42.9818C73.5191 43.0546 73.5374 43.1273 73.501 43.2C73.501 43.2727 73.5373 43.3273 73.6101 43.3636C73.6829 43.4364 73.7193 43.5091 73.7193 43.5818C73.7193 43.6545 73.7557 43.7091 73.8285 43.7455V44.2364C73.9013 44.3091 73.9377 44.3636 73.9377 44.4C73.9377 44.4727 73.9741 44.6182 74.0469 44.8364L74.1561 45.1636C74.2289 45.2364 74.2471 45.3091 74.2107 45.3818C74.2107 45.4182 74.2107 45.4727 74.2107 45.5455C74.2107 45.5818 74.2471 45.6364 74.3199 45.7091V45.9273L74.4837 46.0909V46.4727C74.4837 46.5091 74.52 46.5636 74.5928 46.6364C74.5564 46.7455 74.5746 46.8545 74.6474 46.9636C74.7202 47.0364 74.7566 47.1455 74.7566 47.2909C74.7566 47.3273 74.7748 47.3636 74.8112 47.4C74.8476 47.4 74.8658 47.4364 74.8658 47.5091V47.7818L75.0842 47.9455V48.5455L75.248 48.7091V49.0909L75.3571 49.2C75.3207 49.3455 75.339 49.4545 75.4117 49.5273C75.5209 49.6 75.5573 49.6909 75.5209 49.8C75.5937 49.9091 75.6301 50.0182 75.6301 50.1273C75.6301 50.2364 75.6301 50.3818 75.6301 50.5636L75.9031 50.7273V51.2727L76.1215 51.7091V52.2C76.2307 52.2727 76.3034 52.3636 76.3398 52.4727C76.3762 52.5818 76.449 52.6545 76.5582 52.6909L76.3944 52.8545V53.1273C76.4672 53.2 76.5218 53.2364 76.5582 53.2364V53.5091L76.6674 53.6727C76.6674 53.8545 76.7038 53.9636 76.7766 54C76.8494 54.0727 76.8676 54.1636 76.8312 54.2727C76.7948 54.3818 76.8312 54.4727 76.9404 54.5455C76.904 54.6182 76.904 54.7091 76.9404 54.8182C77.0132 54.8909 77.0496 54.9636 77.0496 55.0364C77.0496 55.0727 77.0132 55.1273 76.9404 55.2L77.3225 55.9091V56.3455L77.5955 56.7818C77.5227 56.8545 77.4863 56.8909 77.4863 56.8909C77.5591 56.9636 77.5955 57.0546 77.5955 57.1636C77.6683 57.2364 77.7047 57.3455 77.7047 57.4909C77.7411 57.5636 77.7775 57.6182 77.8139 57.6545C77.8503 57.6909 77.8685 57.7273 77.8685 57.7636C77.8321 57.8364 77.8321 57.8909 77.8685 57.9273C77.9413 57.9636 77.9777 58.0182 77.9777 58.0909V58.4727C77.9777 58.4727 78.0141 58.5091 78.0868 58.5818V58.8545C78.196 58.9273 78.287 59.0182 78.3598 59.1273L78.2506 59.2364L78.3598 59.3455C78.3598 59.5273 78.378 59.6727 78.4144 59.7818C78.4872 59.8545 78.5054 59.9455 78.469 60.0546C78.469 60.1273 78.5236 60.2 78.6328 60.2727V60.6545C78.7056 60.7273 78.742 60.8 78.742 60.8727C78.7784 60.9455 78.833 61.0182 78.9058 61.0909V61.4727L79.0149 61.5818V62.0182L79.2879 62.5091V63L79.3971 63.1636V63.3818L79.5609 63.5455V63.7636C79.5973 63.8727 79.6883 64.0364 79.8338 64.2545C79.8338 64.3273 79.8157 64.4 79.7793 64.4727C79.7793 64.5455 79.8339 64.6182 79.943 64.6909V65.1273C79.943 65.1273 79.9794 65.1636 80.0522 65.2364V65.7273C80.0522 65.7636 80.034 65.8 79.9976 65.8364H79.5063L79.2879 66L79.0695 65.8364H78.5782C78.5054 65.9091 78.469 65.9454 78.469 65.9454L78.3052 65.8364C78.2324 65.9091 78.196 65.9454 78.196 65.9454C78.1232 65.8727 78.0868 65.8364 78.0868 65.8364H77.6501C77.6501 65.8727 77.6319 65.8909 77.5955 65.8909C77.5591 65.8909 77.5227 65.9091 77.4863 65.9454C77.4499 65.9454 77.3589 65.9091 77.2133 65.8364C77.1405 65.8364 77.0496 65.8909 76.9404 66L76.722 65.8364H75.6847L75.5209 66C75.4481 65.9273 75.3571 65.8727 75.248 65.8364H72.1907C72.1179 65.7636 72.0815 65.7091 72.0815 65.6727C72.0815 65.6 72.0451 65.5455 71.9723 65.5091V65.1273C71.9723 65.0545 71.9359 65.0182 71.8631 65.0182C71.8631 64.8727 71.8267 64.7455 71.754 64.6364C71.6812 64.5273 71.663 64.4 71.6993 64.2545C71.6266 64.0364 71.5538 63.8727 71.481 63.7636V63.2727C71.4446 63.2727 71.39 63.2364 71.3172 63.1636V62.8909C71.2444 62.8182 71.208 62.7818 71.208 62.7818C71.2808 62.7091 71.3172 62.6727 71.3172 62.6727C71.2808 62.5636 71.2262 62.4727 71.1534 62.4C71.117 62.3273 71.0988 62.2364 71.0988 62.1273C71.0988 62.0545 71.0442 61.9818 70.935 61.9091C70.8623 61.8 70.8623 61.6909 70.935 61.5818L70.8259 61.4727V61.0909L70.6621 60.9273V60.6545L70.5529 60.5455V60.1636L70.3891 59.7273C70.3163 59.6545 70.2799 59.5273 70.2799 59.3455L70.0615 59.1273L69.7886 59.2909H68.1507C68.1143 59.2909 68.0598 59.2545 67.987 59.1818H67.6048C67.6048 59.1818 67.5684 59.2182 67.4956 59.2909H66.9497C66.9497 59.2909 66.9133 59.2545 66.8405 59.1818L66.7313 59.2909H66.1854C66.1126 59.3636 66.0762 59.4 66.0762 59.4C66.0034 59.4 65.967 59.3818 65.967 59.3455C66.0034 59.3091 66.0034 59.2727 65.967 59.2364C65.8578 59.2 65.785 59.2 65.7486 59.2364C65.7122 59.2364 65.6212 59.2727 65.4756 59.3455L65.2573 59.1818C65.2573 59.1818 65.2209 59.2182 65.1481 59.2909C65.0753 59.3273 65.0025 59.3455 64.9297 59.3455C64.8933 59.3091 64.8387 59.2909 64.7659 59.2909C64.6931 59.2909 64.6567 59.2545 64.6567 59.1818H64.22L64.1108 59.2909H63.8378C63.765 59.2182 63.7286 59.1818 63.7286 59.1818L63.4557 59.3455L63.2919 59.1818H62.0362L61.8178 59.3455L61.5995 59.1818L61.4903 59.2909H60.9443L60.8352 59.1818H60.18L60.0708 59.2909H59.7979L59.4703 59.9455V60.2727C59.3975 60.3455 59.3611 60.4 59.3611 60.4364V60.6545L59.1973 60.8182V61.0909C59.1245 61.1636 59.0882 61.2 59.0882 61.2V61.7455C58.979 61.7818 58.9244 61.8364 58.9244 61.9091C58.9608 61.9818 58.9608 62.0545 58.9244 62.1273C58.8516 62.2 58.8152 62.2545 58.8152 62.2909C58.8516 62.3273 58.8516 62.3818 58.8152 62.4545C58.7788 62.5273 58.7424 62.6 58.706 62.6727C58.6696 62.7455 58.6696 62.8182 58.706 62.8909C58.6332 62.9636 58.5786 63 58.5422 63V63.3818C58.4694 63.4545 58.4148 63.5273 58.3784 63.6C58.3784 63.6727 58.342 63.7455 58.2692 63.8182V64.0909C58.3056 64.1636 58.2874 64.2182 58.2146 64.2545C58.1782 64.2545 58.1601 64.2909 58.1601 64.3636V64.5818C58.0873 64.6545 58.0509 64.7636 58.0509 64.9091C57.9781 64.9818 57.9235 65.0727 57.8871 65.1818V65.5091C57.8871 65.5091 57.8507 65.5455 57.7779 65.6182V65.7818L57.4503 65.9454L57.2865 65.8364H56.5222L56.413 65.9454L56.2493 65.8364C56.1765 65.8 56.1219 65.8182 56.0855 65.8909C56.0491 65.9273 55.9945 65.9454 55.9217 65.9454L55.7033 65.8364H54.939L54.8298 65.9454L54.7206 65.8364L54.5569 65.9454C54.5569 65.9454 54.5387 65.9091 54.5023 65.8364H53.6833L53.465 66L53.2466 65.8364C53.2466 65.8364 53.192 65.8909 53.0828 66L52.8644 65.8364C52.828 65.8364 52.7371 65.8727 52.5915 65.9454H52.3731L52.2093 65.8364L52.0455 66L51.7726 65.7818L51.5542 65.9454C51.5542 65.9454 51.5178 65.9091 51.445 65.8364H49.7526C49.6798 65.7273 49.698 65.6182 49.8072 65.5091V65.2364L49.971 65.1273V64.8545C49.971 64.8182 50.0074 64.7636 50.0801 64.6909V64.3091C50.1165 64.3091 50.1347 64.3091 50.1347 64.3091C50.1347 64.2727 50.1529 64.2545 50.1893 64.2545C50.2257 64.1818 50.2257 64.1091 50.1893 64.0364C50.1893 63.9636 50.2257 63.8909 50.2985 63.8182C50.3713 63.7818 50.3895 63.7455 50.3531 63.7091C50.3167 63.6364 50.3349 63.5636 50.4077 63.4909C50.4805 63.4182 50.4987 63.3455 50.4623 63.2727C50.4623 63.2 50.4623 63.1273 50.4623 63.0546L50.5715 62.8909V62.6727L50.7353 62.5091V62.2364C50.8081 62.1636 50.8445 62.1273 50.8445 62.1273V61.7455L50.9536 61.5818C50.99 61.5455 51.0082 61.4545 51.0082 61.3091L51.2266 61.0909C51.1538 60.9455 51.1174 60.8545 51.1174 60.8182C51.1902 60.7455 51.2266 60.6909 51.2266 60.6545V60.4364L51.3904 60.2727V60C51.3904 60 51.4268 59.9818 51.4996 59.9455C51.536 59.8727 51.536 59.8182 51.4996 59.7818C51.4632 59.7091 51.4814 59.6364 51.5542 59.5636C51.627 59.5273 51.6452 59.4909 51.6088 59.4545C51.6088 59.4182 51.627 59.3636 51.6634 59.2909C51.6634 59.1818 51.6634 59.1273 51.6634 59.1273C51.7726 59.0545 51.809 58.9818 51.7726 58.9091C51.7362 58.8 51.7544 58.7091 51.8272 58.6364C51.8635 58.6364 51.8817 58.5273 51.8817 58.3091C51.9181 58.3091 51.9727 58.2727 52.0455 58.2V57.8182C52.0455 57.8182 52.0819 57.7818 52.1547 57.7091V57.3273L52.2639 57.2182C52.2639 57.0727 52.3003 56.9455 52.3731 56.8364C52.4459 56.6909 52.4641 56.5455 52.4277 56.4L52.7007 55.9636V55.5818L52.8098 55.4727V55.0909L53.0828 54.6545V54.3273C53.0828 54.2909 53.1192 54.2364 53.192 54.1636V53.8364L53.465 53.3455V53.0182C53.5378 52.9455 53.5742 52.8909 53.5742 52.8545V52.5818C53.6106 52.5818 53.6651 52.5455 53.7379 52.4727V52.0364C53.7743 51.9273 53.8107 51.8364 53.8471 51.7636C53.8835 51.6909 53.9199 51.6182 53.9563 51.5455V51.2182C54.1019 51 54.1929 50.8364 54.2293 50.7273V50.1273C54.3021 50.0545 54.3567 50.0182 54.3931 50.0182V49.7455C54.3931 49.7091 54.3931 49.6909 54.3931 49.6909C54.4295 49.6909 54.4477 49.6727 54.4477 49.6364C54.5205 49.5636 54.5387 49.5091 54.5023 49.4727C54.5023 49.4 54.5023 49.3273 54.5023 49.2545C54.6478 48.9636 54.7934 48.7636 54.939 48.6545L54.7752 48.4364L55.0482 48.1636V47.7818C55.0846 47.7818 55.1028 47.7636 55.1028 47.7273C55.1028 47.7273 55.121 47.6909 55.1574 47.6182C55.1938 47.5455 55.1938 47.4727 55.1574 47.4C55.121 47.3273 55.1392 47.2545 55.212 47.1818C55.2848 47.1091 55.303 47.0182 55.2666 46.9091C55.2302 46.8 55.2666 46.7091 55.3758 46.6364C55.4486 46.5636 55.4667 46.4909 55.4304 46.4182C55.394 46.3455 55.4304 46.2727 55.5395 46.2C55.5031 46.1273 55.5213 46.0546 55.5941 45.9818C55.6669 45.8727 55.7033 45.7818 55.7033 45.7091C55.7761 45.6364 55.8125 45.5636 55.8125 45.4909C55.8125 45.4182 55.8671 45.3636 55.9763 45.3273C55.8307 45.2545 55.7761 45.2182 55.8125 45.2182C55.8489 45.0364 55.9399 44.8545 56.0855 44.6727V44.1273C56.1583 44.0545 56.1947 44.0182 56.1947 44.0182V43.7455C56.2675 43.6727 56.3039 43.6182 56.3039 43.5818C56.3039 43.5091 56.3221 43.4364 56.3585 43.3636L56.5768 42.9273V42.3818L57.0136 41.6182V41.1273L57.232 41.0182C57.3047 40.9455 57.3047 40.8909 57.232 40.8545C57.1592 40.8182 57.1228 40.7636 57.1228 40.6909C57.1956 40.5455 57.232 40.4364 57.232 40.3636C57.232 40.2545 57.2865 40.1636 57.3957 40.0909V39.7091C57.4685 39.6364 57.5049 39.5636 57.5049 39.4909C57.5049 39.4182 57.5413 39.3636 57.6141 39.3273C57.6141 39.2545 57.6323 39.1818 57.6687 39.1091C57.7051 39.0364 57.7415 38.9636 57.7779 38.8909C57.8143 38.8182 57.8143 38.7455 57.7779 38.6727C57.7779 38.5636 57.7779 38.4727 57.7779 38.4C57.8507 38.3273 57.8689 38.2545 57.8325 38.1818C57.8325 38.1091 57.8689 38.0545 57.9417 38.0182C58.0145 37.9455 58.0327 37.8727 57.9963 37.8C57.9963 37.7273 58.0145 37.6545 58.0509 37.5818C58.1237 37.5818 58.1782 37.5818 58.2146 37.5818C58.2874 37.5455 58.3602 37.5273 58.433 37.5273L58.1601 37.2C58.1601 37.2 58.1964 37.1636 58.2692 37.0909V36.6545C58.342 36.5818 58.3784 36.5091 58.3784 36.4364C58.3784 36.3636 58.4148 36.3091 58.4876 36.2727C58.5604 36.2 58.5786 36.1273 58.5422 36.0545C58.5058 35.9818 58.524 35.9091 58.5968 35.8364C58.6696 35.7636 58.7424 35.6364 58.8152 35.4545L58.706 35.2364C58.7788 35.2 58.8152 35.0727 58.8152 34.8545C58.8516 34.8545 58.888 34.8364 58.9244 34.8H61.7633L61.8724 34.6909L61.9816 34.8H63.1827C63.1827 34.8 63.2191 34.7636 63.2919 34.6909L63.4557 34.8H66.5675C66.6403 34.8727 66.6767 34.9273 66.6767 34.9636L66.8405 34.8H70.9896ZM66.6221 46.8545L66.5129 46.7455V46.4727L66.4037 46.3636C66.3673 46.2545 66.3491 46.1636 66.3491 46.0909C66.3855 46.0182 66.3673 45.9455 66.2945 45.8727C66.2945 45.7273 66.24 45.6 66.1308 45.4909C66.058 45.3818 66.058 45.2364 66.1308 45.0545L65.967 44.8909C65.967 44.7455 65.967 44.6727 65.967 44.6727C65.8942 44.6 65.8396 44.5273 65.8032 44.4545C65.8032 44.3818 65.7668 44.3091 65.694 44.2364V43.8545C65.694 43.8545 65.6758 43.8182 65.6394 43.7455C65.603 43.6727 65.5848 43.6 65.5848 43.5273C65.5848 43.4545 65.5484 43.3818 65.4756 43.3091C65.4756 43.1273 65.512 43.0182 65.5848 42.9818C65.512 42.9091 65.4574 42.8364 65.421 42.7636C65.421 42.6909 65.3847 42.6182 65.3119 42.5455V42.3273C65.3119 42.2909 65.2755 42.2364 65.2027 42.1636V41.8909H65.1481C65.0753 41.8182 65.0389 41.7455 65.0389 41.6727C65.0753 41.6 65.0571 41.5273 64.9843 41.4545L64.8205 41.6727V42.0545C64.7477 42.0545 64.7113 42.0909 64.7113 42.1636V42.5455L64.8205 42.8182C64.7477 42.8909 64.6749 42.9455 64.6021 42.9818C64.5293 42.9818 64.4748 43.0182 64.4384 43.0909C64.4384 43.1636 64.4202 43.2364 64.3838 43.3091C64.3474 43.3818 64.3292 43.4545 64.3292 43.5273L64.1654 43.9091C64.2382 43.9091 64.2746 43.9455 64.2746 44.0182L64.0016 44.4545V45C63.9288 45.2909 63.856 45.4727 63.7832 45.5455C63.674 45.6182 63.6194 45.7091 63.6194 45.8182C63.6558 45.9273 63.6194 46.0182 63.5103 46.0909V46.4727C63.4375 46.5455 63.4011 46.6 63.4011 46.6364V46.8545L63.2373 47.0182V47.2909C63.2373 47.2909 63.2009 47.3273 63.1281 47.4V47.9455C63.0189 47.9818 62.9643 48.0546 62.9643 48.1636C63.0007 48.2364 62.9825 48.3091 62.9097 48.3818C62.8369 48.4545 62.8187 48.5273 62.8551 48.6C62.8915 48.6727 62.8551 48.7455 62.7459 48.8182C62.7095 48.8909 62.6913 48.9818 62.6913 49.0909C62.7277 49.2 62.7277 49.2909 62.6913 49.3636L62.5822 49.4727V49.6909L62.3092 50.1818C62.3092 50.3273 62.3092 50.4 62.3092 50.4C62.3092 50.4727 62.2728 50.5636 62.2 50.6727C62.1636 50.7455 62.1636 50.8364 62.2 50.9455C62.2 50.9455 62.1818 50.9636 62.1454 51C62.109 51 62.0726 51.0182 62.0362 51.0545V51.5455L61.8724 51.9273C61.7996 52 61.7633 52.0727 61.7633 52.1455C61.7996 52.1818 61.7815 52.2364 61.7087 52.3091C61.6359 52.3455 61.6177 52.4 61.6541 52.4727C61.6905 52.5455 61.6723 52.6 61.5995 52.6364C61.5267 52.7091 61.4903 52.7818 61.4903 52.8545C61.5267 52.8909 61.5449 52.9455 61.5449 53.0182C61.5449 53.0909 61.5085 53.1636 61.4357 53.2364C61.3993 53.2727 61.3993 53.3273 61.4357 53.4V53.7818C61.3629 53.8545 61.3083 53.9091 61.2719 53.9455C61.2355 53.9455 61.1991 53.9818 61.1627 54.0546V54.2182H64.6021L64.7113 54.3273C64.7477 54.3273 64.8023 54.2909 64.8751 54.2182H68.6967C68.7695 54.1091 68.7877 54.0182 68.7513 53.9455C68.7149 53.8727 68.6603 53.8 68.5875 53.7273C68.5511 53.6545 68.5511 53.5818 68.5875 53.5091C68.6239 53.4364 68.6057 53.3636 68.5329 53.2909C68.4601 53.2182 68.4237 53.1455 68.4237 53.0727C68.4601 53 68.4237 52.9273 68.3145 52.8545V52.4727C68.3145 52.4 68.2781 52.3636 68.2053 52.3636V52.0909L68.0416 51.9273V51.7091C68.0416 51.6727 68.0052 51.6182 67.9324 51.5455C68.0052 51.3636 67.987 51.2364 67.8778 51.1636C67.805 51.0546 67.7686 50.9091 67.7686 50.7273L67.6594 50.6182V50.1273L67.441 49.8545V49.4727L67.2772 49.3091V49.0909L67.1681 48.9273C67.1317 48.8545 67.1135 48.7818 67.1135 48.7091C67.1499 48.6 67.1317 48.5091 67.0589 48.4364C67.0589 48.3273 67.0225 48.2364 66.9497 48.1636C66.9133 48.0546 66.8951 47.9636 66.8951 47.8909C66.8951 47.8182 66.8587 47.7455 66.7859 47.6727C66.7131 47.5636 66.7131 47.4727 66.7859 47.4L66.6221 47.2364V46.8545Z" fill="#E4E4E4"/>
<path d="M97.9552 53.6182C97.8824 53.5455 97.846 53.5091 97.846 53.5091H97.1909C97.1545 53.5091 97.0999 53.5455 97.0271 53.6182C96.9543 53.5818 96.8997 53.5636 96.8633 53.5636C96.8633 53.5636 96.8269 53.5273 96.7541 53.4545H96.4266L96.2628 53.6182C96.19 53.5455 96.1536 53.4909 96.1536 53.4545H95.8806L95.7169 53.6182C95.7169 53.5455 95.6805 53.5091 95.6077 53.5091C95.5713 53.5091 95.5167 53.5455 95.4439 53.6182L95.2255 53.5091H91.6769C91.6769 53.5091 91.6587 53.5273 91.6223 53.5636V55.3636C91.6951 55.4364 91.7315 55.4727 91.7315 55.4727C91.7315 55.5091 91.6951 55.5636 91.6223 55.6364V57.6545C91.6223 57.7273 91.5859 57.7818 91.5131 57.8182C91.4767 57.8545 91.4767 57.9091 91.5131 57.9818C91.5131 57.9818 91.5495 58.0182 91.6223 58.0909V58.3636C91.6587 58.4 91.6769 58.4182 91.6769 58.4182C91.7133 58.4182 91.7497 58.4545 91.7861 58.5273C91.7497 58.5636 91.7133 58.6545 91.6769 58.8V60.2182L91.7315 60.2727C91.7315 60.3091 91.6951 60.3636 91.6223 60.4364V62.6182C91.6223 62.6545 91.5859 62.7091 91.5131 62.7818C91.4403 62.8545 91.4585 62.9273 91.5677 63C91.6769 63.0364 91.6951 63.0909 91.6223 63.1636L91.8953 63.4364L91.6223 63.5455V65.4L91.7861 65.5091L91.6223 65.6727C91.5495 65.7091 91.4403 65.7273 91.2947 65.7273L91.1856 65.8364H90.6396L90.5304 65.7273H89.7661C89.6933 65.7636 89.6387 65.8 89.6023 65.8364C89.6023 65.8727 89.5659 65.8727 89.4931 65.8364L89.3294 65.7273H88.838C88.8016 65.7636 88.7652 65.7818 88.7288 65.7818C88.7288 65.7818 88.7106 65.8182 88.6742 65.8909L88.4013 65.7273H87.6915L87.4732 65.8364C87.4732 65.8364 87.4004 65.8 87.2548 65.7273H87.0364L86.8726 65.8364H86.5997C86.5997 65.8364 86.5633 65.8 86.4905 65.7273H85.8354C85.8354 65.7273 85.799 65.7636 85.7262 65.8364L85.5624 65.7273H84.6343C84.6343 65.7273 84.5979 65.7636 84.5251 65.8364L84.3613 65.7273H83.8154V65.2364C83.8154 65.2364 83.8518 65.2 83.9246 65.1273C83.9246 65.0545 83.9246 65 83.9246 64.9636C83.961 64.8909 83.9246 64.8182 83.8154 64.7455V64.3636L83.9246 64.2V63.0546C83.9246 63.0182 83.8882 62.9636 83.8154 62.8909C83.779 62.8545 83.8154 62.7818 83.9246 62.6727V61.8545L83.8154 61.7455V60.5455C83.8154 60.5455 83.8518 60.5091 83.9246 60.4364V60.0546C83.8518 59.9818 83.8154 59.9455 83.8154 59.9455V58.5273C83.7426 58.4545 83.7062 58.4 83.7062 58.3636V57.7091C83.7062 57.6727 83.7426 57.6182 83.8154 57.5455V56.5091C83.7426 56.5091 83.688 56.4545 83.6516 56.3455L83.8154 56.0727V55.5818C83.8154 55.5818 83.779 55.5455 83.7062 55.4727L83.8154 55.3636V52.7455C83.8154 52.7455 83.8518 52.7091 83.9246 52.6364V52.3636C83.9246 52.2909 83.8882 52.2545 83.8154 52.2545V51.1636C83.8518 51.1636 83.87 51.1636 83.87 51.1636C83.87 51.1273 83.8882 51.1091 83.9246 51.1091V50.7273L83.6516 50.1818C83.7244 50.1091 83.7972 50.0727 83.87 50.0727C83.9428 50 83.961 49.9273 83.9246 49.8545C83.9246 49.7818 83.9246 49.7091 83.9246 49.6364C83.9246 49.6 83.8882 49.5455 83.8154 49.4727V49.2545C83.8882 49.1818 83.9246 49.1273 83.9246 49.0909C83.961 49.0545 84.0155 49.0182 84.0883 48.9818C84.0155 48.9091 83.9791 48.8727 83.9791 48.8727C83.9428 48.8 83.9246 48.6909 83.9246 48.5455C83.8882 48.5455 83.8518 48.5455 83.8154 48.5455C83.779 48.5091 83.7426 48.4909 83.7062 48.4909C83.7426 48.4182 83.779 48.3455 83.8154 48.2727C83.8518 48.2 83.8882 48.1091 83.9246 48V47.5636C83.9246 47.5273 83.8882 47.4727 83.8154 47.4C83.8154 47.4 83.8518 47.3636 83.9246 47.2909V46.9091C83.961 46.8727 83.9791 46.8545 83.9791 46.8545C84.0155 46.8545 84.0519 46.8182 84.0883 46.7455V46.4727C84.0519 46.4727 83.9974 46.4364 83.9246 46.3636V44.2909C83.8518 44.2182 83.8154 44.1818 83.8154 44.1818V43.7455C83.8882 43.7455 83.9246 43.7091 83.9246 43.6364V42.8727C83.9246 42.8364 83.9064 42.8182 83.87 42.8182C83.87 42.8182 83.87 42.8 83.87 42.7636C83.8336 42.7636 83.8154 42.7455 83.8154 42.7091V40.2545L83.7062 40.1455C83.7062 40.1091 83.7426 40.0545 83.8154 39.9818V39.3818C83.8882 39.3091 83.9246 39.2364 83.9246 39.1636C83.9246 39.0909 83.8882 39.0364 83.8154 39C83.779 38.9636 83.7426 38.9091 83.7062 38.8364V37.7455L83.7608 37.6909C83.7608 37.6545 83.779 37.6364 83.8154 37.6364V36.2182L83.9246 36.1091V35.6727C83.8882 35.6727 83.87 35.6545 83.87 35.6182C83.87 35.6182 83.8518 35.5818 83.8154 35.5091C83.8154 35.4364 83.87 35.3455 83.9791 35.2364V34.6909C84.1611 34.8364 84.3067 34.8727 84.4159 34.8C84.4523 34.8 84.4705 34.8 84.4705 34.8C84.4705 34.7636 84.4887 34.7455 84.5251 34.7455H85.2894C85.3258 34.7455 85.3804 34.7818 85.4532 34.8545H85.7262C85.8353 34.7455 85.9081 34.6909 85.9445 34.6909L86.1083 34.8545H86.9818L87.1456 34.6909C87.2184 34.6909 87.273 34.7091 87.3094 34.7455C87.3458 34.7818 87.4004 34.8182 87.4732 34.8545L87.7461 34.6909L87.9645 34.8545H88.2921C88.3649 34.7818 88.4195 34.7455 88.4559 34.7455C88.5286 34.7091 88.5832 34.7091 88.6196 34.7455C88.656 34.7818 88.7106 34.8182 88.7834 34.8545H88.9472L89.111 34.6909C89.1838 34.7636 89.2202 34.8 89.2202 34.8C89.3658 34.8727 89.4749 34.8545 89.5477 34.7455C89.6205 34.7091 89.6751 34.7091 89.7115 34.7455C89.7479 34.7455 89.8025 34.7273 89.8753 34.6909L89.9845 34.8545H90.4212C90.4212 34.8182 90.4576 34.7636 90.5304 34.6909H90.9126L91.0764 34.8545H91.2947L91.4585 34.6909L91.5677 34.8545H92.0591C92.1682 34.7455 92.3138 34.6909 92.4958 34.6909C92.4958 34.7273 92.5322 34.7818 92.605 34.8545L92.7688 34.6909C92.7688 34.7273 92.8052 34.7818 92.878 34.8545C92.9508 34.7818 92.9872 34.7455 92.9872 34.7455C93.0963 34.6727 93.1873 34.6727 93.2601 34.7455C93.3329 34.7818 93.4239 34.8182 93.5331 34.8545C93.5331 34.7818 93.5695 34.7455 93.6423 34.7455C93.6787 34.7455 93.7333 34.7818 93.8061 34.8545H94.0244L94.1882 34.6909H94.4612C94.4612 34.7636 94.5158 34.8182 94.625 34.8545C94.5886 34.8545 94.6796 34.8182 94.8979 34.7455H95.3347C95.3347 34.7455 95.4075 34.7818 95.5531 34.8545L95.826 34.6909L96.0444 34.8545H96.2628L96.4812 34.6909L96.645 34.8545H96.9179C96.9907 34.7818 97.0271 34.7455 97.0271 34.7455H97.846C97.8824 34.7455 97.9006 34.7636 97.9006 34.8C97.9006 34.8 97.9188 34.8 97.9552 34.8C97.9552 34.8 97.9734 34.7818 98.0098 34.7455C98.0462 34.7455 98.0644 34.7273 98.0644 34.6909H98.7195L98.8833 34.8545L98.9925 34.6909H99.2655C99.3382 34.7636 99.3746 34.8182 99.3746 34.8545C99.4474 34.8909 99.502 34.8909 99.5384 34.8545C99.5748 34.7818 99.6294 34.7273 99.7022 34.6909L99.9206 34.8C99.957 34.8 100.012 34.7636 100.084 34.6909C100.157 34.6909 100.212 34.7273 100.248 34.8C100.321 34.8727 100.394 34.9273 100.467 34.9636C100.539 35 100.594 34.9818 100.63 34.9091C100.703 34.8 100.794 34.7273 100.903 34.6909L101.122 34.8L101.231 34.6909H101.722L101.886 34.8545H102.65L102.814 34.6909C102.85 34.7636 102.887 34.8182 102.923 34.8545C102.96 34.8909 102.978 34.9455 102.978 35.0182C102.941 35.0182 102.923 35.0364 102.923 35.0727C102.85 35.1455 102.814 35.1818 102.814 35.1818C102.85 35.2182 102.869 35.2545 102.869 35.2909C102.941 35.4 102.96 35.4909 102.923 35.5636C102.923 35.6364 102.941 35.7091 102.978 35.7818L102.869 35.9455C102.869 35.9455 102.905 35.9818 102.978 36.0545V37.1455C102.905 37.2182 102.869 37.2545 102.869 37.2545L102.978 37.3636V39.8727C102.905 39.8727 102.869 39.9091 102.869 39.9818C102.832 40.0545 102.832 40.1091 102.869 40.1455C102.905 40.1455 102.941 40.1818 102.978 40.2545V41.2909L102.923 41.3455H101.886L101.722 41.2364C101.686 41.2 101.613 41.2364 101.504 41.3455H98.7195C98.6831 41.3091 98.6649 41.2909 98.6649 41.2909C98.6649 41.2545 98.6285 41.2182 98.5557 41.1818L98.3374 41.3455H97.1909L97.0271 41.4545L96.9179 41.3455H96.1536L95.9898 41.5091H95.8806C95.8442 41.4364 95.8078 41.4 95.7714 41.4C95.7351 41.3636 95.6805 41.3091 95.6077 41.2364C95.6077 41.2364 95.5713 41.2727 95.4985 41.3455H95.2255L95.1163 41.4545C95.0799 41.4545 95.0253 41.4182 94.9525 41.3455H94.5704L94.352 41.1818L94.1882 41.3455H93.4239L93.2055 41.5091L92.9872 41.3455H91.6769C91.6405 41.3818 91.6041 41.4182 91.5677 41.4545C91.5677 41.4909 91.5313 41.5273 91.4585 41.5636L91.6223 41.8364V43.0909C91.6223 43.1273 91.5859 43.1818 91.5131 43.2545L91.6769 43.4182L91.5131 43.6364V43.9091L91.6223 44.0182C91.6587 44.0909 91.6587 44.1455 91.6223 44.1818C91.5859 44.1818 91.5495 44.2182 91.5131 44.2909L91.6223 44.4V45.2182L91.5131 45.3273L91.6223 45.4364V45.8182C91.6223 45.8909 91.5677 45.9455 91.4585 45.9818L91.6223 46.2545L91.5131 46.3636C91.4403 46.4727 91.4403 46.5636 91.5131 46.6364C91.6223 46.7091 91.6769 46.8 91.6769 46.9091C91.6769 46.9091 91.6951 46.9273 91.7315 46.9636H95.3347L95.4985 47.1273L95.7714 46.9636H96.5358L96.645 47.0727L96.8087 46.9636H97.1363C97.2091 46.8909 97.2637 46.8545 97.3001 46.8545C97.3365 46.8545 97.3911 46.8909 97.4639 46.9636H101.231L101.34 47.0727C101.304 47.0727 101.358 47.0364 101.504 46.9636H102.214L102.377 46.8545C102.414 46.8545 102.468 46.8909 102.541 46.9636H102.923C102.996 47.0364 102.996 47.1091 102.923 47.1818C102.887 47.2182 102.85 47.2727 102.814 47.3455L102.978 47.5636V48.1636C102.941 48.2364 102.905 48.2909 102.869 48.3273C102.832 48.3273 102.832 48.3636 102.869 48.4364C102.869 48.4727 102.905 48.5273 102.978 48.6V49.3636L102.869 49.4727C102.869 49.4727 102.905 49.5455 102.978 49.6909V50.2909C103.014 50.2909 102.978 50.3455 102.869 50.4545V50.5636L102.978 50.6727V53.4L102.541 53.6182L102.377 53.4545H101.122C101.049 53.5273 100.994 53.5636 100.958 53.5636C100.921 53.6 100.885 53.6182 100.849 53.6182C100.776 53.5455 100.703 53.5091 100.63 53.5091C100.558 53.4727 100.485 53.4182 100.412 53.3455C100.412 53.3818 100.394 53.4 100.357 53.4C100.357 53.4 100.357 53.4182 100.357 53.4545L99.9206 53.6182C99.9206 53.5818 99.8842 53.5273 99.8114 53.4545L99.6476 53.6182L99.5384 53.4545H98.119L97.9552 53.6182Z" fill="#E4E4E4"/>
</g>
</svg>
